<?xml version="1.0" encoding="utf-8"?>
<svg version="1.1" id="svg2" width="3333.3333" height="3333.3333" viewBox="0 0 3333.3333 3333.3333" xmlns="http://www.w3.org/2000/svg">
  <g id="g8" transform="matrix(1.3333333,0,0,-1.3333333,0,3333.3333)">
    <g id="g10" transform="scale(0.1)">
      <path d="M 25000,0 H 0 V 25000 H 25000 V 0" style="fill-opacity: 1; fill-rule: nonzero; stroke: none; fill: rgb(244, 244, 245);" id="path12"/>
      <path d="M 17079.1,21627.9 H 7670.52 c -237.49,0 -430.01,-192.6 -430.01,-430.1 V 10060.3 c 0,-237.5 192.52,-430 430.01,-430 h 9408.58 c 237.5,0 430,192.5 430,430 v 11137.5 c 0,237.5 -192.5,430.1 -430,430.1" style="fill-opacity: 1; fill-rule: nonzero; stroke: none; fill: rgb(244, 244, 245);" id="path14"/>
      <path d="m 7670.52,21605.7 c -224.9,0 -407.87,-183 -407.87,-407.9 V 10060.3 c 0,-224.9 182.97,-407.9 407.87,-407.9 h 9408.58 c 224.9,0 407.9,183 407.9,407.9 v 11137.5 c 0,224.9 -183,407.9 -407.9,407.9 z M 17079.1,9608.1 H 7670.52 c -249.32,0 -452.16,202.8 -452.16,452.2 v 11137.5 c 0,249.4 202.84,452.2 452.16,452.2 h 9408.58 c 249.3,0 452.2,-202.8 452.2,-452.2 V 10060.3 c 0,-249.4 -202.9,-452.2 -452.2,-452.2" style="fill:#000000;fill-opacity:1;fill-rule:nonzero;stroke:none" id="path16"/>
      <path d="m 17509.1,17328 c -12.2,0 -22.1,9.9 -22.1,22.1 v 1353.1 c 0,12.2 9.9,22.2 22.1,22.2 12.2,0 22.2,-10 22.2,-22.2 v -1353.1 c 0,-12.2 -10,-22.1 -22.2,-22.1" style="fill:#000000;fill-opacity:1;fill-rule:nonzero;stroke:none" id="path18"/>
      <path d="M 5270.11 10224.3 L 0 10224.3 L 0 21033.8 L 5270.11 21033.8 L 5270.11 10224.3" style="fill-opacity: 1; fill-rule: nonzero; stroke: none; fill: rgb(244, 244, 245);" id="path20"/>
      <path d="M 7833.13,10246.5 H 13059 V 21011.6 H 7833.13 Z m 5247.97,-44.3 H 7810.98 c -12.23,0 -22.15,9.9 -22.15,22.1 v 10809.5 c 0,12.2 9.92,22.1 22.15,22.1 h 5270.12 c 12.2,0 22.2,-9.9 22.2,-22.1 V 10224.3 c 0,-12.2 -10,-22.1 -22.2,-22.1" style="fill:#000000;fill-opacity:1;fill-rule:nonzero;stroke:none" id="path22"/>
      <path d="m 16938.6,10224.3 h -3314.2 v 10809.5 h 3314.2 V 10224.3" style="fill-opacity: 1; fill-rule: nonzero; stroke: none; fill: rgb(244, 244, 245);" id="path24"/>
      <path d="m 13646.6,10246.5 h 3269.9 v 10765.1 h -3269.9 z m 3292,-44.3 h -3314.2 c -12.2,0 -22.1,9.9 -22.1,22.1 v 10809.5 c 0,12.2 9.9,22.1 22.1,22.1 h 3314.2 c 12.3,0 22.2,-9.9 22.2,-22.1 V 10224.3 c 0,-12.2 -9.9,-22.1 -22.2,-22.1" style="fill:#000000;fill-opacity:1;fill-rule:nonzero;stroke:none" id="path26"/>
      <path d="M 18201.8,9026.1 H 6276.13 v 471.3 H 18201.8 v -471.3" style="fill-opacity: 1; fill-rule: nonzero; stroke: none; fill: rgb(244, 244, 245);" id="path28"/>
      <path d="M 6298.28,9048.2 H 18179.7 v 427 H 6298.28 Z M 18201.8,9003.9 H 6276.13 c -12.23,0 -22.15,9.9 -22.15,22.2 v 471.3 c 0,12.2 9.92,22.1 22.15,22.1 H 18201.8 c 12.3,0 22.2,-9.9 22.2,-22.1 v -471.3 c 0,-12.3 -9.9,-22.2 -22.2,-22.2" style="fill:#000000;fill-opacity:1;fill-rule:nonzero;stroke:none" id="path30"/>
      <path d="m 16741.3,10220.7 h -74.1 v 292.3 h 74.1 c 79.8,0 144.4,-66.3 144.4,-146.2 0,-79.7 -64.6,-146.1 -144.4,-146.1 z m 118.5,470.2 c -32.9,11 -68.4,17 -105.9,17 h -86.7 v 244.6 h -1504.1 v -877 c 0,-346.7 280.9,-627.6 627.4,-627.6 h 249.3 c 329.8,0 599.9,254.5 625.3,577.9 h 88.8 c 186.2,0 324.2,160.3 324.2,346.6 v 2.6 c 0,148.7 -88,272.2 -218.3,315.9" style="fill-opacity: 1; fill-rule: nonzero; stroke: none; fill: rgb(244, 244, 245);" id="path32"/>
      <path d="m 16689.4,10242.8 h 51.9 c 67.4,0 122.3,55.7 122.3,124 0,68.4 -54.9,124.1 -122.3,124.1 h -51.9 z m 51.9,-44.3 h -74.1 c -12.2,0 -22.1,10 -22.1,22.2 v 292.3 c 0,12.2 9.9,22.2 22.1,22.2 h 74.1 c 91.9,0 166.6,-75.5 166.6,-168.4 0,-92.8 -74.7,-168.3 -166.6,-168.3 z m -1556,731.8 v -854.8 c 0,-333.9 271.5,-605.5 605.2,-605.5 h 249.3 c 313.8,0 578.7,244.9 603.2,557.5 0.9,11.6 10.5,20.4 22.1,20.4 h 88.8 c 169.4,0 302.1,142.5 302.1,324.5 v 2.6 c 0,137.7 -79.8,253.5 -203.2,294.9 -31.4,10.5 -64.6,15.8 -98.9,15.8 h -86.7 c -12.2,0 -22.1,10 -22.1,22.2 v 222.4 z m 854.5,-1504.6 h -249.3 c -358.1,0 -649.5,291.5 -649.5,649.8 v 877 c 0,12.2 9.9,22.1 22.1,22.1 h 1504.1 c 12.3,0 22.2,-9.9 22.2,-22.1 V 10730 h 64.5 c 39.1,0 77.1,-6.1 112.9,-18.1 141.9,-47.6 233.5,-179.8 233.5,-336.9 v -2.6 c 0,-203.3 -155.4,-368.7 -346.4,-368.7 h -68.6 c -36,-325.8 -315.6,-578 -645.5,-578" style="fill:#000000;fill-opacity:1;fill-rule:nonzero;stroke:none" id="path34"/>
      <path d="m 16859.8,10668.8 c -2.3,0 -4.7,0.3 -7,1.1 -31.4,10.5 -64.6,15.8 -98.9,15.8 h -66.4 c -23.4,0 -42.4,19.1 -42.4,42.5 v 202.1 h -1220.8 c -12.2,0 -22.1,9.9 -22.1,22.2 0,12.2 9.9,22.1 22.1,22.1 H 16647 c 23.4,0 42.4,-19 42.4,-42.4 V 10730 h 64.5 c 39.1,0 77.1,-6.1 112.9,-18.1 11.6,-3.9 17.9,-16.4 14,-28 -3.1,-9.3 -11.7,-15.1 -21,-15.1 z m -170.4,-426 h 45.7 c 64.9,0 121,48.4 127.7,110.2 3.9,35.3 -7.5,70.6 -31.1,97.1 -23.3,25.9 -56.2,40.8 -90.4,40.8 h -51.9 z m 45.7,-44.3 h -47.6 c -23.4,0 -42.4,19.1 -42.4,42.5 v 251.7 c 0,23.4 19,42.5 42.4,42.5 h 53.8 c 46.8,0 91.7,-20.3 123.3,-55.6 32.1,-35.8 47.5,-83.7 42.3,-131.4 -9.4,-85.3 -83.2,-149.7 -171.8,-149.7 z m -695.3,-772.8 h -249.3 c -358.1,0 -649.5,291.5 -649.5,649.8 v 877 c 0,12.2 9.9,22.1 22.1,22.1 12.3,0 22.2,-9.9 22.2,-22.1 v -877 c 0,-333.9 271.5,-605.5 605.2,-605.5 h 249.3 c 313.8,0 578.7,244.9 603.2,557.5 0.9,11.6 10.5,20.4 22.1,20.4 h 88.8 c 169.4,0 302.1,142.5 302.1,324.5 v 2.6 c 0,63.6 -17.2,124.1 -49.8,174.9 -6.6,10.3 -3.6,24 6.7,30.6 10.3,6.6 23.9,3.6 30.5,-6.7 37.2,-58 56.9,-126.7 56.9,-198.8 v -2.6 c 0,-203.3 -155.4,-368.7 -346.4,-368.7 h -68.6 c -36,-325.8 -315.6,-578 -645.5,-578" style="fill:#000000;fill-opacity:1;fill-rule:nonzero;stroke:none" id="path36"/>
      <path d="m 16194.9,10254.6 c 0,-154.6 -125.2,-279.8 -279.7,-279.8 -154.5,0 -279.7,125.2 -279.7,279.8 0,154.5 125.2,279.8 279.7,279.8 154.5,0 279.7,-125.3 279.7,-279.8" style="fill-opacity: 1; fill-rule: nonzero; stroke: none; fill: rgb(244, 244, 245);" id="path38"/>
      <path d="m 15915.2,10512.2 c -142,0 -257.6,-115.5 -257.6,-257.6 0,-142.1 115.6,-257.7 257.6,-257.7 142,0 257.5,115.6 257.5,257.7 0,142.1 -115.5,257.6 -257.5,257.6 z m 0,-559.6 c -166.5,0 -301.9,135.5 -301.9,302 0,166.5 135.4,301.9 301.9,301.9 166.4,0 301.8,-135.4 301.8,-301.9 0,-166.5 -135.4,-302 -301.8,-302" style="fill:#000000;fill-opacity:1;fill-rule:nonzero;stroke:none" id="path40"/>
      <path d="m 15970.8,11191.1 c -4.1,0 -8.2,1.2 -11.9,3.5 -3.5,2.3 -85.6,56.1 -105.9,155 -13.6,66.5 4,136.3 52.2,207.5 131.1,193.5 88.2,279 42.8,369.4 l -3.7,7.4 c -5.5,10.9 -1,24.2 9.9,29.7 11,5.5 24.3,1 29.7,-9.9 l 3.7,-7.4 c 46.8,-93.3 99.9,-199 -45.7,-414 -41.2,-60.8 -56.5,-119.2 -45.6,-173.4 16.3,-80.5 85.9,-126.6 86.6,-127 10.3,-6.7 13.2,-20.4 6.6,-30.6 -4.3,-6.6 -11.4,-10.2 -18.7,-10.2" style="fill:#000000;fill-opacity:1;fill-rule:nonzero;stroke:none" id="path42"/>
      <path d="m 18479.9,18480.7 h -875 c -96.1,614 -627.3,1083.7 -1268.3,1083.7 -164.8,0 -322.3,-31.4 -467.1,-88 -326.2,589.1 -954,988.2 -1675.1,988.2 -1057,0 -1913.8,-856.9 -1913.8,-1913.9 0,-23.4 0.9,-46.7 1.8,-70 h -88.9 c -737.7,0 -1335.7,-598 -1335.7,-1335.7 0,-737.7 598,-1335.7 1335.7,-1335.7 h 6286.4 c 737.6,0 1335.7,598 1335.7,1335.7 0,737.7 -598.1,1335.7 -1335.7,1335.7" style="fill-opacity: 1; fill-rule: nonzero; stroke: none; fill: rgb(244, 244, 245);" id="path44"/>
      <path d="m 12336.5,18620 c -724.3,0 -1313.5,-589.2 -1313.5,-1313.5 0,-724.3 589.2,-1313.6 1313.5,-1313.6 h 6286.4 c 724.3,0 1313.6,589.3 1313.6,1313.5 0,724.4 -589.3,1313.6 -1313.6,1313.6 H 17748 c -10.9,0 -20.2,7.9 -21.9,18.7 -96.6,617.1 -620.8,1065 -1246.4,1065 -157.8,0 -312.2,-29.1 -459.1,-86.5 -10.3,-4 -22,0.2 -27.4,9.9 -333.7,602.5 -968.1,976.7 -1655.7,976.7 -1043.1,0 -1891.7,-848.6 -1891.7,-1891.6 0,-21.5 0.8,-42.7 1.6,-63.9 l 0.2,-5.3 c 0.2,-6.1 -2.1,-11.9 -6.2,-16.2 -4.2,-4.4 -10,-6.8 -16,-6.8 z m 6286.4,-2671.4 h -6286.4 c -748.7,0 -1357.8,609.1 -1357.8,1357.8 0,748.8 609.1,1357.9 1357.8,1357.9 h 66 c -0.6,15.9 -1,31.8 -1,47.9 0,1067.5 868.5,1935.9 1936,1935.9 697.3,0 1341.2,-376 1685,-982.7 146.6,54.8 300.3,82.6 457.2,82.6 313.2,0 616.1,-112.6 852.9,-317 229.5,-198.1 383.2,-469.8 434.2,-766.7 h 856.1 c 748.8,0 1357.9,-609.1 1357.9,-1357.8 0,-748.8 -609.1,-1357.9 -1357.9,-1357.9" style="fill:#000000;fill-opacity:1;fill-rule:nonzero;stroke:none" id="path46"/>
      <path d="m 14098.8,4947.2 c 0,0 512.8,-1035 1089,-1532.6 97.1,-83.8 248.5,-37.6 284.7,85.6 21,71.2 41.5,166.1 58.5,292.5 63.4,472.6 -361.7,1703.2 -361.7,1703.2 l -189.3,61 c -66.4,21.4 -136.8,-19.2 -151.5,-87.5 l -19.7,-92.2 -227.7,200.4 c -51.8,45.7 -131.4,38.8 -174.1,-15.4 -87,-110.2 -222.1,-315.9 -308.2,-615" style="fill:#ffffff;fill-opacity:1;fill-rule:nonzero;stroke:none" id="path48"/>
      <path d="m 14122.4,4949.4 c 48.3,-95.5 539.6,-1051.5 1079.9,-1518 40,-34.6 92.2,-45.8 143.2,-30.8 51.2,15.1 90.7,54.6 105.8,105.8 23,78.4 42.5,175.7 57.7,289.2 59,439.2 -316.2,1562.2 -357.1,1682.7 l -178.7,57.5 c -25.7,8.4 -53.9,5.4 -77.3,-8.2 -23.4,-13.5 -40,-36.4 -45.7,-62.8 l -19.8,-92.2 c -1.6,-7.7 -7.2,-13.9 -14.7,-16.4 -7.5,-2.5 -15.7,-0.8 -21.6,4.4 l -227.6,200.4 c -20.6,18.1 -47,26.7 -74.2,24.3 -27,-2.5 -51.2,-15.6 -68,-36.8 -92,-116.6 -218.6,-314.8 -301.9,-599.1 z M 15301.7,3350 c -46.6,0 -92.1,16.5 -128.4,47.9 -573,494.7 -1089.2,1529.1 -1094.4,1539.5 -2.4,5 -3,10.7 -1.4,16 85.2,295.6 216.7,501.7 312.1,622.5 24.4,30.9 59.4,49.9 98.7,53.5 39.5,3.6 77.7,-8.9 107.5,-35.2 l 199.2,-175.4 11.9,55.3 c 8.3,38.6 32.7,72.1 66.9,91.9 34.2,19.8 75.4,24.1 113,12 l 189.2,-61 c 6.7,-2.1 11.9,-7.3 14.2,-13.8 17.4,-50.5 426.1,-1241.1 362.7,-1713.5 -15.5,-115.7 -35.4,-215.3 -59.1,-295.8 -19.3,-65.7 -70.1,-116.4 -135.8,-135.8 -18.6,-5.4 -37.5,-8.1 -56.3,-8.1" style="fill:#000000;fill-opacity:1;fill-rule:nonzero;stroke:none" id="path50"/>
      <path d="m 15348.1,3516.7 c -5.7,0 -11.4,2.2 -15.7,6.6 -585.9,588.4 -1076.4,1509.4 -1081.3,1518.6 -5.7,10.8 -1.6,24.2 9.2,29.9 10.8,5.7 24.2,1.6 29.9,-9.2 4.9,-9.2 492.4,-924.4 1073.6,-1508.1 8.6,-8.7 8.6,-22.7 -0.1,-31.3 -4.3,-4.3 -9.9,-6.5 -15.6,-6.5" style="fill:#000000;fill-opacity:1;fill-rule:nonzero;stroke:none" id="path52"/>
      <path d="m 15098.3,4324.9 c -9.3,0 -18,5.9 -21,15.3 -3.9,11.6 2.4,24.1 14.1,27.9 l 306.4,100.9 c 11.6,3.9 24.1,-2.5 27.9,-14.1 3.8,-11.6 -2.5,-24.1 -14.1,-28 l -306.4,-100.8 c -2.3,-0.8 -4.6,-1.2 -6.9,-1.2" style="fill:#000000;fill-opacity:1;fill-rule:nonzero;stroke:none" id="path54"/>
      <path d="m 14896.8,4652.2 c -9.3,0 -18,5.9 -21,15.3 -3.9,11.6 2.4,24.1 14.1,27.9 l 385,126.8 c 11.6,3.8 24.1,-2.5 27.9,-14.1 3.9,-11.6 -2.4,-24.2 -14.1,-28 l -385,-126.8 c -2.3,-0.7 -4.6,-1.1 -6.9,-1.1" style="fill:#000000;fill-opacity:1;fill-rule:nonzero;stroke:none" id="path56"/>
      <path d="m 9911.14,12719.9 c 39.4,41.5 2848.96,1255.3 3997.36,1513.5 1148.4,258.1 1576.3,260.6 1967.1,-395.7 390.7,-656.3 -1882.4,-4237.5 -1882.4,-4237.5 l -4835.93,1260.5 753.87,1859.2" style="fill:#000000;fill-opacity:1;fill-rule:nonzero;stroke:none" id="path58"/>
      <path d="m 12632.7,11336.8 c -3,0 -6.1,0.6 -9.1,2 -11.1,5 -16.1,18.1 -11.1,29.2 540.2,1205.8 1432,2067.3 1441,2075.9 8.8,8.5 22.8,8.2 31.3,-0.7 8.5,-8.8 8.1,-22.8 -0.7,-31.3 -8.9,-8.5 -894.6,-864.4 -1431.2,-2062 -3.7,-8.2 -11.8,-13.1 -20.2,-13.1" style="fill:#ffffff;fill-opacity:1;fill-rule:nonzero;stroke:none" id="path60"/>
      <path d="m 7612.44,11115.8 c 0,0 127.27,-1305.3 409.62,-1576.8 282.34,-271.4 3669.64,0 3669.64,0 0,0 269.2,-441 445.1,-1619.7 175.9,-1178.6 372.1,-2765.5 663.5,-3152.6 l 2536.4,547.6 c 0,0 -841.3,5049.2 -1425.6,5735.8 -584.3,686.7 -4835.63,794.5 -4835.63,794.5 l -1463.03,-728.8" style="fill:#000000;fill-opacity:1;fill-rule:nonzero;stroke:none" id="path62"/>
      <path d="m 14204.5,10408.6 c -9.2,0 -17.8,5.8 -20.9,14.9 -106.4,305.6 -203.7,511.6 -289.4,612.3 -197.9,232.5 -1074.6,444.5 -2535.5,612.8 -12.1,1.4 -20.9,12.4 -19.5,24.6 1.4,12.1 12.6,20.8 24.6,19.4 1493.2,-172.1 2355.9,-383.4 2564.2,-628.1 89.2,-104.9 189.3,-315.6 297.4,-626.4 4,-11.6 -2.1,-24.2 -13.7,-28.2 -2.4,-0.9 -4.8,-1.3 -7.2,-1.3" style="fill:#ffffff;fill-opacity:1;fill-rule:nonzero;stroke:none" id="path64"/>
      <path d="m 12306.9,15389.2 c -90,65.8 -216.7,43 -277.9,-50.3 -316.1,-481.8 -1190.5,-1816.3 -1200.8,-1849.2 l 438.2,-61.8 1089.6,1698.7 c 55.6,86.8 34.1,201.8 -49.1,262.6" style="fill:#ffffff;fill-opacity:1;fill-rule:nonzero;stroke:none" id="path66"/>
      <path d="m 10863.6,13507.1 391.8,-55.3 1081.9,1686.8 c 49.2,76.7 30.1,179 -43.5,232.8 -38.6,28.2 -85.8,39 -132.8,30.5 -47,-8.5 -87.3,-35.2 -113.5,-75.1 -668.2,-1018.7 -1099.5,-1681.6 -1183.9,-1819.7 z m 402.8,-101.4 c -1,0 -2,0.1 -3.1,0.3 l -438.2,61.7 c -6.4,0.9 -12.1,4.6 -15.6,10.1 -3.5,5.5 -4.4,12.3 -2.4,18.5 10,32.1 659.9,1026.4 1203.4,1854.8 32.9,50.2 83.5,83.7 142.6,94.4 59,10.7 118.3,-2.9 166.9,-38.4 92.4,-67.6 116.4,-196 54.6,-292.4 l -1089.5,-1698.8 c -4.2,-6.4 -11.2,-10.2 -18.7,-10.2" style="fill:#000000;fill-opacity:1;fill-rule:nonzero;stroke:none" id="path68"/>
      <path d="m 6350.1,11367 c 0,0 -455.13,636.1 -268.76,2060.9 186.38,1424.8 642.35,2164.4 1119.37,2333.4 477.02,168.9 2439.22,-139.7 2592.42,-2533.5 L 6350.1,11367" style="fill-opacity: 1; fill-rule: nonzero; stroke: none; fill: rgb(244, 244, 245);" id="path70"/>
      <path d="m 7486.42,15778.1 c -115.34,0 -211.07,-13.9 -278.31,-37.7 -243.98,-86.4 -470.95,-323.3 -656.37,-685 -209.49,-408.7 -360.37,-957.2 -448.43,-1630.4 -167.09,-1277.3 187.42,-1921.1 254.22,-2028.8 l 3412.58,1844.3 c -83.09,1235.9 -651.59,1859.4 -1114.86,2165.1 -414.62,273.6 -861.25,372.5 -1168.83,372.5 z M 6350.11,11344.8 c -6.95,0 -13.74,3.3 -18.03,9.3 -4.59,6.4 -458.07,659.6 -272.7,2076.7 169.97,1299.3 583.27,2156.3 1133.94,2351.3 254.98,90.4 903.69,44.9 1486.32,-339.5 473.43,-312.4 1054.74,-950 1135.6,-2213.4 0.56,-8.6 -3.97,-16.8 -11.57,-20.9 L 6360.63,11347.5 c -3.34,-1.8 -6.95,-2.7 -10.52,-2.7" style="fill:#000000;fill-opacity:1;fill-rule:nonzero;stroke:none" id="path72"/>
      <path d="m 7721.14,12373.9 c -11.52,0 -21.25,8.9 -22.07,20.6 l -94.47,1336.2 c -0.86,12.2 8.33,22.8 20.54,23.7 12.23,0.9 22.78,-8.3 23.65,-20.5 l 94.46,-1336.3 c 0.87,-12.2 -8.32,-22.8 -20.54,-23.6 -0.52,-0.1 -1.05,-0.1 -1.57,-0.1" style="fill:#000000;fill-opacity:1;fill-rule:nonzero;stroke:none" id="path74"/>
      <path d="m 6184.39,11733.4 c 0,0 165.35,-1196.5 1837.67,-796.1 1672.32,400.5 2544.14,1955.1 2544.14,1955.1 0,0 973.7,208.2 940.7,839.9 0,0 -326,-87.4 -603.1,0 -277.2,87.4 -577.2,-2 -692.5,-110.2 -790.76,-741.6 -3316.56,-964 -4026.91,-1888.7" style="fill-opacity: 1; fill-rule: nonzero; stroke: none; fill: rgb(244, 244, 245);" id="path76"/>
      <path d="m 6207.85,11727.5 c 11.12,-60.6 89.29,-414.5 426.44,-644.3 327.98,-223.7 793.18,-265.5 1382.61,-124.3 1643.89,393.7 2521.4,1928.9 2530,1944.4 3.1,5.5 8.5,9.5 14.7,10.8 9.4,2 926.9,205.4 923.9,790.3 -84.9,-19.1 -351.5,-67.9 -588.4,6.8 -272.7,85.9 -564.7,-5.9 -670.7,-105.2 -363.95,-341.4 -1078.16,-569.5 -1834.3,-811 -884.17,-282.3 -1798.33,-574.3 -2184.25,-1067.5 z m 1182.41,-894.6 c -311.16,0 -572.69,71.4 -781.61,214.1 -384.01,262.3 -443.85,666.3 -446.2,683.4 -0.81,5.8 0.77,11.8 4.38,16.5 390.87,508.8 1316.57,804.4 2211.79,1090.3 751.25,239.9 1460.83,466.6 1817.48,801.1 130.6,122.5 440.8,201.3 714.4,115.1 267.8,-84.4 587.4,-0.6 590.7,0.3 6.4,1.7 13.3,0.4 18.7,-3.5 5.4,-3.9 8.8,-10.1 9.1,-16.7 32.2,-616.4 -840,-835.7 -948.4,-860.6 -35.2,-60.1 -254.2,-423.4 -643.46,-823.3 -391.63,-402.3 -1040.9,-925.7 -1909.92,-1133.8 -230.96,-55.3 -443.56,-82.9 -636.96,-82.9" style="fill:#000000;fill-opacity:1;fill-rule:nonzero;stroke:none" id="path78"/>
      <path d="m 10911.4,13440.1 c -27,0 -55,0.6 -84.1,1.7 -12.2,0.5 -21.7,10.8 -21.2,23.1 0.5,12.2 10,21.6 23,21.2 488,-19.7 654.5,141.9 656.1,143.5 8.6,8.6 22.6,8.7 31.3,0.2 8.7,-8.6 8.9,-22.5 0.3,-31.2 -6.6,-6.8 -159.9,-158.5 -605.4,-158.5" style="fill:#000000;fill-opacity:1;fill-rule:nonzero;stroke:none" id="path80"/>
      <path d="m 10860.7,13208.6 c -10.8,0 -21.7,0.1 -32.9,0.3 -12.2,0.2 -22,10.3 -21.7,22.6 0.2,12.2 10.5,21.8 22.5,21.7 425.4,-7.8 562.7,143 564,144.5 8.1,9.2 22.1,10.2 31.3,2.1 9.2,-8 10.1,-22 2.1,-31.2 -5.9,-6.7 -144.7,-160 -565.3,-160" style="fill:#000000;fill-opacity:1;fill-rule:nonzero;stroke:none" id="path82"/>
      <path d="m 7961.21,16870.1 c -12.57,-23 -547.55,-937.3 -547.55,-937.3 l -368.93,-247.9 c 136.14,-103.5 376.46,-259.1 712.75,-348.2 342.99,-90.9 634.15,-72.4 804.64,-48.8 -14.79,46.6 -39.71,107.3 -82.89,170.7 -68.09,100 -149.33,159.5 -201.18,191.3 110.08,189.1 220.17,378.2 330.26,567.2 l -647.1,653" style="fill-opacity: 1; fill-rule: nonzero; stroke: none; fill: rgb(244, 244, 245);" id="path84"/>
      <path d="m 7413.66,15932.8 h 0.22 z M 7083,15683.9 c 205.03,-150.9 433.71,-260.5 680.15,-325.8 252.09,-66.8 510.75,-84.2 769.31,-51.7 -18.02,49.5 -42.02,96.4 -71.54,139.8 -50.83,74.6 -116.25,136.8 -194.46,184.9 -10.25,6.3 -13.6,19.6 -7.55,30 l 321.71,552.5 -614.73,620.3 c -85.95,-148 -513.22,-878.3 -533.11,-912.3 -1.69,-2.9 -4,-5.4 -6.77,-7.2 z m 1196.78,-437.7 c -177.66,0 -354.33,23.1 -527.98,69.1 -262.08,69.4 -504.48,187.9 -720.47,351.9 -5.69,4.3 -8.94,11.1 -8.74,18.3 0.21,7.1 3.85,13.7 9.79,17.7 l 364.72,245.1 c 40.2,68.7 532.84,910.8 544.68,932.4 3.36,6.2 9.42,10.4 16.34,11.3 6.88,1 13.89,-1.3 18.83,-6.3 l 647.09,-653 c 7.05,-7.1 8.45,-18.1 3.41,-26.8 l -319.54,-548.7 c 75.55,-49.6 139.26,-112.1 189.62,-186.1 36.89,-54.2 65.72,-113.6 85.7,-176.5 1.98,-6.2 1.1,-13 -2.38,-18.5 -3.48,-5.5 -9.23,-9.2 -15.69,-10.1 -95.18,-13.2 -190.43,-19.8 -285.38,-19.8" style="fill:#000000;fill-opacity:1;fill-rule:nonzero;stroke:none" id="path86"/>
      <path d="m 9581,17454.2 c -246.57,202.4 -537.32,-8.9 -825.17,239.3 -131.9,113.8 -143.98,221.3 -302.35,283.5 -104.87,41.2 -291.54,69.6 -415.74,-25.2 -158.17,-120.7 -41.75,-308.8 -170.07,-730.7 -90.12,-296.3 -214.97,-425.2 -144.87,-529.1 70.88,-105.1 235.7,-28.4 321.77,-137.4 111.39,-141 -91.8,-361.7 -28.48,-560.9 43.5,-136.9 251.62,-332.4 774.73,-397.8 28.85,84 98.3,250 143.48,412.4 141.46,508.4 64.39,702.9 191.56,768.5 194.86,100.6 430.01,-210.1 574.82,-116.3 150.39,97.4 133.5,585.8 -119.68,793.7" style="fill:#000000;fill-opacity:1;fill-rule:nonzero;stroke:none" id="path88"/>
      <path d="m 8558.95,17205.4 49.35,-149.3 c 0,0 -191.54,-469.7 -225.77,-647.1 -34.23,-177.4 507.17,-325.1 507.17,-325.1 l 84.98,63 151.18,-37.8 c 0,0 -4.57,517 133.94,861.7 0,0 -255.61,310.1 -700.85,234.6" style="fill-opacity: 1; fill-rule: nonzero; stroke: none; fill: rgb(244, 244, 245);" id="path90"/>
      <path d="m 8539.97,17216.8 c 17.7,5 36.97,10.3 57,14.2 19.52,3.7 41.58,7.1 56.56,6.7 32.99,0.6 66.01,2.6 98.95,-1.1 66.03,-3.3 131.25,-17.7 193.91,-38.3 62.87,-20.5 122.75,-49.6 178.2,-85.4 55.76,-36 106.61,-76.8 152.31,-128 5.26,-5.9 6.53,-14 3.99,-20.9 l -0.53,-1.4 c -26.51,-66.5 -47.39,-135.7 -64.81,-205.8 -16.52,-70.3 -29.74,-141.6 -40.48,-213.4 -10.19,-71.8 -18.09,-144.1 -23.77,-216.6 -5.56,-72.4 -9.38,-145.3 -10.01,-217.5 -0.05,-8.7 -7.06,-15.6 -15.68,-15.6 -1.16,0 -2.41,0.2 -3.5,0.4 l -152.8,31.3 18.56,3.7 -84.98,-63 -0.27,-0.2 c -5.55,-4.1 -12.57,-5.1 -18.75,-3.3 -107.49,31.1 -212.04,68.3 -313.04,117.7 -50.17,25.2 -99.69,53.1 -143.94,91.6 -21.8,19.5 -42.84,42 -56.56,71.7 -7.25,14.5 -10.65,31.7 -11.5,48.9 0.78,8.2 1.19,18.3 2.89,24.9 l 4.65,20.8 c 26.93,109.4 64.66,213 102.09,317.1 38.15,103.7 77.86,206.6 119.33,309.1 l -0.52,-15.3 c -18.52,55 -34.03,113.3 -47.3,167.7 z m 37.96,-22.8 c 19.62,-45.2 37.03,-86.4 51.4,-131 1.7,-5.2 1.35,-10.6 -0.52,-15.3 -41.19,-101.8 -80.85,-204.5 -118.76,-307.6 -37.13,-103.2 -74.83,-207.2 -100.51,-311.9 l -4.38,-19.5 c -1.67,-6.8 -1.06,-10.6 -2.03,-16.1 0.88,-10.2 2.32,-20.6 7.58,-30.8 9.35,-20.6 26.34,-39.7 45.55,-56.7 38.91,-34 86.1,-61.1 134.26,-85.2 96.98,-47.5 200.91,-84.5 305.01,-114.6 l -19.02,-3.6 84.95,63 1.36,0.9 c 5.21,3.6 11.59,4.4 17.24,2.8 l 149.5,-44.3 -19.13,-15.1 c -0.48,73.8 2.25,146.9 6.73,220.2 4.62,73.3 11.48,146.4 20.69,219.3 9.76,72.9 22.06,145.5 37.84,217.6 16.69,72 36.99,143.3 63.54,212.9 l 3.48,-22.2 c -39.93,44.6 -89.84,85.4 -142.05,118.8 -52.47,33.9 -109.07,61.5 -168.37,80.7 -59.14,19.4 -120.55,33.1 -182.9,36.1 -31.05,3.6 -62.31,1.6 -93.52,1 -17.23,0.3 -26.89,-2.5 -39.29,-2.1 -11.87,0 -24.48,1.6 -38.65,2.7" style="fill:#000000;fill-opacity:1;fill-rule:nonzero;stroke:none" id="path92"/>
      <path d="m 8376.01,16790.6 c 0,0 47.39,343.3 -113.39,331.8 -160.77,-11.5 -203.44,-390.7 113.39,-331.8" style="fill:#ffffff;fill-opacity:1;fill-rule:nonzero;stroke:none" id="path94"/>
      <path d="m 8270.31,17100.6 c -2,0 -4.03,-0.1 -6.11,-0.3 -35.9,-2.5 -67.5,-29 -86.7,-72.6 -21.67,-49.2 -25.82,-121.1 13.71,-171 32.89,-41.6 89.63,-57.7 164.8,-47 7.39,69.8 11.39,217 -39.08,270.9 -12.55,13.4 -27.85,20 -46.62,20 z m 105.7,-310 h 0.22 z m -63.48,-28.4 c -83.26,0 -130.24,34.4 -156.05,67 -50.98,64.3 -46.53,155 -19.53,216.3 25.66,58.3 72.05,95.3 124.09,99 35.35,2.5 64.98,-8.8 88.25,-33.7 80.38,-85.8 49.99,-313.6 48.66,-323.2 -1.31,-9.5 -8.51,-17 -17.9,-18.8 -24.8,-4.6 -47.25,-6.6 -67.52,-6.6" style="fill:#000000;fill-opacity:1;fill-rule:nonzero;stroke:none" id="path96"/>
      <path d="m 9576.86,7087.3 c -107.47,221.2 -117.7,444 0,669.2 l -84.48,101.3 -2310.56,-76 79.64,-734 2236.59,-25.8 78.81,65.3" style="fill:#ffffff;fill-opacity:1;fill-rule:nonzero;stroke:none" id="path98"/>
      <path d="m 7281.36,7069.7 2208.82,-25.4 59.27,49 c -105.32,226.7 -104.98,448.6 1.02,660.2 l -68.17,81.8 -2275.89,-74.9 z m 2216.7,-69.8 c -0.09,0 -0.18,0 -0.26,0 l -2236.59,25.8 c -11.21,0.1 -20.55,8.6 -21.76,19.7 l -79.65,734 c -0.67,6.1 1.25,12.3 5.29,16.9 4.04,4.7 9.84,7.4 16,7.6 l 2310.56,76 c 6.71,0.2 13.36,-2.7 17.74,-7.9 l 84.48,-101.4 c 5.73,-6.8 6.76,-16.5 2.61,-24.4 -109.91,-210.2 -109.81,-422.6 0.3,-649.2 4.46,-9.2 2.06,-20.3 -5.8,-26.8 l -78.8,-65.2 c -3.97,-3.3 -8.97,-5.1 -14.12,-5.1" style="fill:#000000;fill-opacity:1;fill-rule:nonzero;stroke:none" id="path100"/>
      <path d="m 5331.23,7938.6 h 4288.51 c 50.13,0 90.76,-40.6 90.76,-90.8 0,-50.1 -40.63,-90.7 -90.76,-90.7 H 7648.13 c -144.37,0 -261.41,-117.1 -261.41,-261.4 v -147 c 0,-144.4 117.04,-261.4 261.41,-261.4 h 1971.61 c 50.13,0 90.76,-40.6 90.76,-90.8 0,-50.1 -40.63,-90.7 -90.76,-90.7 H 5331.23 c -266.21,0 -482.01,215.8 -482.01,482 v 68.8 c 0,266.2 215.8,482 482.01,482" style="fill-opacity: 1; fill-rule: nonzero; stroke: none; fill: rgb(244, 244, 245);" id="path102"/>
      <path d="m 5331.23,7916.5 c -253.56,0 -459.85,-206.3 -459.85,-459.9 v -68.8 c 0,-253.6 206.29,-459.9 459.85,-459.9 h 4288.51 c 37.83,0 68.61,30.8 68.61,68.6 0,37.9 -30.78,68.6 -68.61,68.6 H 7648.13 c -156.35,0 -283.55,127.2 -283.55,283.6 v 147 c 0,156.3 127.2,283.5 283.55,283.5 h 1971.61 c 37.83,0 68.61,30.8 68.61,68.6 0,37.9 -30.78,68.7 -68.61,68.7 z M 9619.74,6883.6 H 5331.23 c -277.99,0 -504.15,226.2 -504.15,504.2 v 68.8 c 0,278 226.16,504.1 504.15,504.1 h 4288.51 c 62.25,0 112.91,-50.6 112.91,-112.9 0,-62.2 -50.66,-112.9 -112.91,-112.9 H 7648.13 c -131.93,0 -239.26,-107.3 -239.26,-239.2 v -147 c 0,-131.9 107.33,-239.3 239.26,-239.3 h 1971.61 c 62.25,0 112.91,-50.6 112.91,-112.9 0,-62.2 -50.66,-112.9 -112.91,-112.9" style="fill:#000000;fill-opacity:1;fill-rule:nonzero;stroke:none" id="path104"/>
      <path d="M 9492.25,7430.9 H 8190.98 c -12.23,0 -22.15,10 -22.15,22.2 0,12.2 9.92,22.1 22.15,22.1 h 1301.27 c 12.23,0 22.14,-9.9 22.14,-22.1 0,-12.2 -9.91,-22.2 -22.14,-22.2" style="fill:#000000;fill-opacity:1;fill-rule:nonzero;stroke:none" id="path106"/>
      <path d="M 9500.47,7235 H 8442.82 c -12.23,0 -22.15,9.9 -22.15,22.1 0,12.2 9.92,22.1 22.15,22.1 h 1057.65 c 12.23,0 22.15,-9.9 22.15,-22.1 0,-12.2 -9.92,-22.1 -22.15,-22.1" style="fill:#000000;fill-opacity:1;fill-rule:nonzero;stroke:none" id="path108"/>
      <path d="M 9743.06,5838.5 H 5869.41 v 949.1 h 3873.65 c -114.35,-320.6 -117.49,-637 0,-949.1" style="fill:#ffffff;fill-opacity:1;fill-rule:nonzero;stroke:none" id="path110"/>
      <path d="m 5891.56,5860.7 h 3819.87 c -102.93,292.8 -102.77,596.9 0.53,904.7 h -3820.4 z m 3851.5,-44.3 H 5869.41 c -12.23,0 -22.15,9.9 -22.15,22.1 v 949.1 c 0,12.2 9.92,22.1 22.15,22.1 h 3873.65 c 7.2,0 13.95,-3.5 18.1,-9.4 4.14,-5.9 5.18,-13.4 2.76,-20.2 -113.55,-318.3 -113.59,-632.5 -0.13,-933.8 2.56,-6.8 1.62,-14.4 -2.52,-20.4 -4.13,-5.9 -10.94,-9.5 -18.21,-9.5" style="fill:#000000;fill-opacity:1;fill-rule:nonzero;stroke:none" id="path112"/>
      <path d="m 6335.75,6740.7 h 3433.96 c 41.3,0 74.77,33.5 74.77,74.8 0,41.3 -33.47,74.8 -74.77,74.8 H 5313.58 c -181.48,0 -328.59,-147.1 -328.59,-328.6 v -516.6 c 0,-181.4 147.11,-328.6 328.59,-328.6 h 4456.13 c 41.3,0 74.77,33.5 74.77,74.8 0,41.3 -33.47,74.8 -74.77,74.8 H 6335.75 c -128.21,0 -232.14,103.9 -232.14,232.1 v 410.4 c 0,128.2 103.93,232.1 232.14,232.1" style="fill-opacity: 1; fill-rule: nonzero; stroke: none; fill: rgb(244, 244, 245);" id="path114"/>
      <path d="m 5313.58,6868.1 c -168.98,0 -306.45,-137.4 -306.45,-306.4 v -516.6 c 0,-168.9 137.47,-306.4 306.45,-306.4 h 4456.13 c 29.02,0 52.63,23.6 52.63,52.6 0,29 -23.61,52.6 -52.63,52.6 H 6335.76 c -140.22,0 -254.3,114.1 -254.3,254.3 v 410.4 c 0,140.2 114.08,254.3 254.3,254.3 h 3433.95 c 29.02,0 52.63,23.6 52.63,52.6 0,29 -23.61,52.6 -52.63,52.6 z M 9769.71,5694.4 H 5313.58 c -193.39,0 -350.74,157.3 -350.74,350.7 v 516.6 c 0,193.4 157.35,350.7 350.74,350.7 h 4456.13 c 53.44,0 96.92,-43.4 96.92,-96.9 0,-53.4 -43.48,-96.9 -96.92,-96.9 H 6335.76 c -115.8,0 -210,-94.2 -210,-210 v -410.4 c 0,-115.8 94.2,-210 210,-210 h 3433.95 c 53.44,0 96.92,-43.5 96.92,-96.9 0,-53.4 -43.48,-96.9 -96.92,-96.9" style="fill:#000000;fill-opacity:1;fill-rule:nonzero;stroke:none" id="path116"/>
      <path d="m 9674.55,6540.1 h -572 c -12.23,0 -22.15,9.9 -22.15,22.1 0,12.2 9.92,22.2 22.15,22.2 h 572 c 12.23,0 22.15,-10 22.15,-22.2 0,-12.2 -9.92,-22.1 -22.15,-22.1" style="fill:#000000;fill-opacity:1;fill-rule:nonzero;stroke:none" id="path118"/>
      <path d="M 9662.49,6413.4 H 7900.92 c -12.23,0 -22.15,9.9 -22.15,22.2 0,12.2 9.92,22.1 22.15,22.1 h 1761.57 c 12.24,0 22.15,-9.9 22.15,-22.1 0,-12.3 -9.91,-22.2 -22.15,-22.2" style="fill:#000000;fill-opacity:1;fill-rule:nonzero;stroke:none" id="path120"/>
      <path d="M 9662.49,6149 H 8146.78 c -12.23,0 -22.15,9.9 -22.15,22.2 0,12.2 9.92,22.1 22.15,22.1 h 1515.71 c 12.24,0 22.15,-9.9 22.15,-22.1 0,-12.3 -9.91,-22.2 -22.15,-22.2" style="fill:#000000;fill-opacity:1;fill-rule:nonzero;stroke:none" id="path122"/>
      <path d="m 5000.23,4747.9 c 121.44,249.9 133.01,501.8 0,756.2 l 95.47,114.5 2610.93,-85.9 -90,-829.4 -2527.34,-29.1 -89.06,73.7" style="fill:#ffffff;fill-opacity:1;fill-rule:nonzero;stroke:none" id="path124"/>
      <path d="m 5027.65,4753.9 69.51,-57.5 2499.57,28.8 85.31,786.1 -2576.26,84.8 -79.14,-95 c 120.52,-239.4 120.86,-490.6 1.01,-747.2 z m 61.64,-101.9 c -5.16,0 -10.15,1.8 -14.12,5.1 l -89.06,73.7 c -7.86,6.5 -10.26,17.6 -5.79,26.8 124.86,257 124.94,497.8 0.29,736.2 -4.15,7.9 -3.11,17.6 2.62,24.4 l 95.46,114.5 c 4.37,5.3 10.97,8.2 17.74,8 l 2610.92,-85.9 c 6.17,-0.2 11.96,-2.9 16,-7.6 4.04,-4.7 5.97,-10.8 5.29,-16.9 l -89.99,-829.4 c -1.21,-11.2 -10.55,-19.6 -21.76,-19.8 L 5089.55,4652 c -0.09,0 -0.17,0 -0.26,0" style="fill:#000000;fill-opacity:1;fill-rule:nonzero;stroke:none" id="path126"/>
      <path d="m 9797.79,5709.9 h -4846 c -56.65,0 -102.57,-46 -102.57,-102.6 0,-56.6 45.92,-102.6 102.57,-102.6 h 2227.9 c 163.14,0 295.39,-132.2 295.39,-295.3 v -166.1 c 0,-163.2 -132.25,-295.4 -295.39,-295.4 h -2227.9 c -56.65,0 -102.57,-45.9 -102.57,-102.6 0,-56.6 45.92,-102.5 102.57,-102.5 h 4846 c 300.81,0 544.71,243.8 544.71,544.6 v 77.8 c 0,300.8 -243.9,544.7 -544.71,544.7" style="fill-opacity: 1; fill-rule: nonzero; stroke: none; fill: rgb(244, 244, 245);" id="path128"/>
      <path d="m 4951.79,4725.7 c -44.34,0 -80.41,-36 -80.41,-80.4 0,-44.3 36.07,-80.4 80.41,-80.4 h 4846 c 288.11,0 522.51,234.4 522.51,522.5 v 77.8 c 0,288.1 -234.4,522.5 -522.51,522.5 h -4846 c -44.34,0 -80.41,-36.1 -80.41,-80.4 0,-44.3 36.07,-80.4 80.41,-80.4 H 7179.7 c 175.09,0 317.53,-142.4 317.53,-317.5 v -166.1 c 0,-175.1 -142.44,-317.6 -317.53,-317.6 z m 4846,-205.1 h -4846 c -68.77,0 -124.71,56 -124.71,124.7 0,68.8 55.94,124.7 124.71,124.7 H 7179.7 c 150.66,0 273.24,122.6 273.24,273.3 v 166.1 c 0,150.6 -122.58,273.2 -273.24,273.2 H 4951.79 c -68.77,0 -124.71,55.9 -124.71,124.7 0,68.8 55.94,124.7 124.71,124.7 h 4846 c 312.51,0 566.81,-254.3 566.81,-566.8 v -77.8 c 0,-312.5 -254.3,-566.8 -566.81,-566.8" style="fill:#000000;fill-opacity:1;fill-rule:nonzero;stroke:none" id="path130"/>
      <path d="M 6291,5139.1 H 5095.84 c -12.23,0 -22.14,9.9 -22.14,22.1 0,12.3 9.91,22.2 22.14,22.2 H 6291 c 12.23,0 22.14,-9.9 22.14,-22.2 0,-12.2 -9.91,-22.1 -22.14,-22.1" style="fill:#000000;fill-opacity:1;fill-rule:nonzero;stroke:none" id="path132"/>
      <path d="M 6547.48,4917.6 H 5086.55 c -12.22,0 -22.14,9.9 -22.14,22.2 0,12.2 9.92,22.1 22.14,22.1 h 1460.93 c 12.23,0 22.14,-9.9 22.14,-22.1 0,-12.3 -9.91,-22.2 -22.14,-22.2" style="fill:#000000;fill-opacity:1;fill-rule:nonzero;stroke:none" id="path134"/>
      <path d="m 17238.7,9142 c 227.4,-145.8 1722.4,-1024.9 3513.4,-174.6 6.5,3.1 11.7,8.1 14.8,14.6 69.1,142.7 831.4,1820.2 -265.3,4216.3 -8.6,18.7 -32.2,24.8 -48.2,12.3 -201,-157.3 -1335.1,-1011.9 -2234.8,-989.9 -21.1,0.5 -36.9,-18.9 -31.3,-39.4 64.8,-237.2 315.3,-1470.2 -955.6,-2992.3 -12.2,-14.6 -9.1,-36.6 7,-47" style="fill-opacity: 1; fill-rule: nonzero; stroke: none; fill: rgb(244, 244, 245);" id="path136"/>
      <path d="m 18217.8,12198.6 c -4.2,0 -6.6,-2.3 -7.7,-3.6 -1.2,-1.6 -2.5,-4.3 -1.5,-7.9 64.1,-234.3 318.9,-1480.7 -959.9,-3012.3 -2.5,-2.9 -2.4,-6.1 -2.2,-7.7 0.3,-1.5 1.1,-4.4 4.2,-6.4 116,-74.4 542.7,-327.4 1162.9,-457.9 795.2,-167.3 1578.9,-71.5 2329,284.6 2,1 3.5,2.4 4.4,4.3 39.7,82.1 241.1,528.5 302.4,1255.3 80.3,953.3 -110.7,1943.2 -568,2942.1 -1.8,4 -5.3,5.3 -6.7,5.6 -1.6,0.4 -4.7,0.7 -7.7,-1.6 -214.3,-167.7 -1316.8,-994.9 -2213.9,-994.9 -11.7,0 -23.3,0.1 -35,0.4 -0.1,0 -0.2,0 -0.3,0 z m 951.7,-3620 c -253.3,0 -508.6,26.9 -765,80.9 -627.6,132 -1060.1,388.5 -1177.7,463.9 -13,8.3 -21.7,21.8 -24.1,37 -2.3,15.3 2,30.9 12,42.8 1264.7,1514.7 1014.3,2741.6 951.2,2972.2 -4.5,16.5 -1.1,33.5 9.4,46.9 10.5,13.5 26.8,20.9 43.9,20.6 889,-22.1 2005.5,816.8 2220.5,985.1 12.9,10.1 29.5,13.7 45.4,9.8 16.3,-4 29.6,-15 36.6,-30.2 460.4,-1006 652.8,-2003.3 571.8,-2964.3 -62,-734.7 -266.3,-1187.6 -306.7,-1270.9 -5.3,-11 -14,-19.7 -25.2,-25 -517.3,-245.6 -1050.3,-368.8 -1592.1,-368.8" style="fill:#000000;fill-opacity:1;fill-rule:nonzero;stroke:none" id="path138"/>
      <path d="m 18551.6,11806.8 c -10.3,0 -19.5,7.2 -21.7,17.6 -2.5,12 5.1,23.7 17.1,26.2 9.6,2 970.3,208.1 1669.9,727.3 9.8,7.3 23.7,5.2 31,-4.6 7.3,-9.9 5.2,-23.7 -4.6,-31 -707.6,-525.1 -1677.5,-733 -1687.2,-735 -1.5,-0.3 -3,-0.5 -4.5,-0.5" style="fill:#000000;fill-opacity:1;fill-rule:nonzero;stroke:none" id="path140"/>
      <path d="m 19242.7,11557 c -10.1,0 -19.2,6.9 -21.6,17.2 -2.7,11.9 4.8,23.8 16.7,26.5 457.4,103.9 859.4,273.3 1194.8,503.5 10.1,6.9 23.9,4.4 30.8,-5.7 7,-10.1 4.4,-23.9 -5.7,-30.8 -340,-233.4 -747.2,-405 -1210.1,-510.2 -1.6,-0.4 -3.3,-0.5 -4.9,-0.5" style="fill:#000000;fill-opacity:1;fill-rule:nonzero;stroke:none" id="path142"/>
      <path d="m 18543.2,11461 c -12.1,0 -22,9.8 -22.2,21.9 -0.1,12.2 9.7,22.3 21.9,22.4 1.4,0.1 148.3,2.4 372.7,35.3 12.1,1.7 23.3,-6.6 25.1,-18.7 1.8,-12.1 -6.6,-23.4 -18.7,-25.1 -227.6,-33.4 -377,-35.7 -378.5,-35.8 -0.1,0 -0.2,0 -0.3,0" style="fill:#000000;fill-opacity:1;fill-rule:nonzero;stroke:none" id="path144"/>
      <path d="m 18755.9,11076.8 c -147.6,0 -233.7,9.7 -236.5,10 -12.1,1.5 -20.8,12.5 -19.3,24.7 1.4,12.1 12.3,20.8 24.6,19.3 9.4,-1.1 946.2,-106.3 1995.7,398.8 11.1,5.3 24.3,0.7 29.6,-10.3 5.3,-11 0.7,-24.3 -10.4,-29.6 -745.6,-358.8 -1435.7,-412.9 -1783.7,-412.9" style="fill:#000000;fill-opacity:1;fill-rule:nonzero;stroke:none" id="path146"/>
      <path d="m 19042,10674.9 c -379.3,0 -616.7,51.4 -621.5,52.5 -11.9,2.7 -19.4,14.6 -16.7,26.5 2.6,11.9 14.4,19.4 26.4,16.7 9.8,-2.2 989.6,-214.1 2163.6,237.1 11.4,4.4 24.2,-1.3 28.6,-12.7 4.4,-11.4 -1.3,-24.2 -12.7,-28.6 -609.5,-234.2 -1167.5,-291.5 -1567.7,-291.5" style="fill:#000000;fill-opacity:1;fill-rule:nonzero;stroke:none" id="path148"/>
      <path d="m 19911.8,10212.7 c -10.9,0 -20.4,8 -21.9,19.1 -1.7,12.1 6.7,23.3 18.8,25 236.1,33.3 461,91.5 668.5,173.1 11.4,4.4 24.2,-1.2 28.7,-12.5 4.5,-11.4 -1.1,-24.3 -12.5,-28.7 -210.7,-82.9 -439,-142 -678.5,-175.7 -1,-0.2 -2.1,-0.3 -3.1,-0.3" style="fill:#000000;fill-opacity:1;fill-rule:nonzero;stroke:none" id="path150"/>
      <path d="m 19415.4,10178.8 c -628.1,0 -1108.7,154.5 -1113.7,156.2 -11.6,3.8 -18,16.3 -14.2,27.9 3.8,11.6 16.4,18 28,14.2 5.2,-1.7 533.4,-171.3 1204.5,-152.5 12.8,0.3 22.4,-9.3 22.7,-21.6 0.4,-12.2 -9.3,-22.4 -21.5,-22.7 -35.6,-1 -71,-1.5 -105.8,-1.5" style="fill:#000000;fill-opacity:1;fill-rule:nonzero;stroke:none" id="path152"/>
      <path d="m 4570.5,18210.8 880.56,-850.9 c 81.18,-78.5 211.07,-75.3 287.82,7.5 265.78,286.6 897.17,904.4 1688.42,1251.9 114.19,50.1 156.6,190.2 88.58,294.7 l -783.41,1204.2 c -58.79,90.3 -178.17,118.9 -271.05,64.1 -296.33,-174.7 -965.81,-638.1 -1901.76,-1692.5 -71.69,-80.7 -66.81,-203.9 10.84,-279" style="fill-opacity: 1; fill-rule: nonzero; stroke: none; fill: rgb(244, 244, 245);" id="path154"/>
      <path d="m 4585.88,18226.8 880.58,-851 c 35.06,-33.9 81.09,-51.7 129.94,-50.5 48.49,1.4 93.32,21.6 126.24,57.1 241.02,260 888.75,902.8 1695.76,1257.2 48.67,21.3 85.29,62.7 100.44,113.5 15.06,50.4 7.22,104.7 -21.52,148.8 l -783.42,1204.2 c -52.58,80.8 -158.52,105.9 -241.24,57.1 -311.75,-183.8 -972.68,-647.5 -1896.43,-1688.1 -64.06,-72.1 -59.8,-181.2 9.65,-248.3 z M 5591.29,17281 c -58.38,0 -113.43,22.2 -155.61,63 l -880.57,850.9 c -86.59,83.7 -91.86,219.7 -12.02,309.6 927.79,1045.2 1593.08,1511.8 1907.08,1696.9 103.16,60.8 235.35,29.6 300.87,-71.2 l 783.41,-1204.1 c 35.84,-55.1 45.62,-122.8 26.83,-185.7 -18.88,-63.2 -64.47,-114.8 -125.08,-141.4 -799.4,-351.1 -1441.93,-988.8 -1681.07,-1246.7 -41.1,-44.3 -97.03,-69.6 -157.52,-71.2 -2.1,-0.1 -4.22,-0.1 -6.32,-0.1" style="fill:#000000;fill-opacity:1;fill-rule:nonzero;stroke:none" id="path156"/>
      <path d="m 3980.13,17100.8 880.56,-850.9 c 81.18,-78.5 211.07,-75.3 287.82,7.5 265.78,286.6 897.17,904.4 1688.42,1251.8 114.19,50.2 156.6,190.3 88.58,294.8 l -783.41,1204.1 c -58.8,90.4 -178.17,118.9 -271.06,64.2 -296.32,-174.7 -965.8,-638.2 -1901.75,-1692.5 -71.69,-80.8 -66.81,-204 10.84,-279" style="fill-opacity: 1; fill-rule: nonzero; stroke: none; fill: rgb(244, 244, 245);" id="path158"/>
      <path d="m 3995.52,17116.7 880.56,-850.9 c 35.07,-33.9 81.15,-51.7 129.96,-50.5 48.48,1.3 93.31,21.6 126.23,57.1 241.02,259.9 888.74,902.7 1695.75,1257.1 48.69,21.4 85.31,62.8 100.46,113.6 15.05,50.4 7.21,104.7 -21.54,148.8 l -783.4,1204.1 c -52.59,80.9 -158.54,106 -241.25,57.2 -311.74,-183.8 -972.66,-647.5 -1896.44,-1688.1 -64.05,-72.2 -59.8,-181.2 9.67,-248.4 z m 1005.4,-945.8 c -58.39,0 -113.44,22.3 -155.62,63 l -880.55,851 c -86.6,83.6 -91.88,219.7 -12.03,309.6 927.82,1045.2 1593.09,1511.8 1907.07,1696.9 103.17,60.8 235.34,29.5 300.88,-71.2 l 783.41,-1204.1 c 35.84,-55.1 45.63,-122.8 26.84,-185.7 -18.88,-63.3 -64.47,-114.8 -125.09,-141.4 -799.41,-351.1 -1441.94,-988.8 -1681.08,-1246.7 -41.08,-44.3 -97.01,-69.6 -157.5,-71.3 -2.11,0 -4.22,-0.1 -6.33,-0.1" style="fill:#000000;fill-opacity:1;fill-rule:nonzero;stroke:none" id="path160"/>
      <path d="m 4165.92,17175.7 c -10.77,0 -20.21,7.9 -21.87,18.8 -1.82,12.1 6.5,23.4 18.59,25.2 l 1082.78,163.5 c 191.18,28.9 347.64,159.9 408.3,342 l 359.84,1079.7 c 3.87,11.6 16.35,17.9 28.02,14 11.6,-3.9 17.88,-16.4 14.01,-28 l -359.84,-1079.8 c -65.97,-197.9 -235.99,-340.3 -443.71,-371.7 l -1082.78,-163.5 c -1.13,-0.1 -2.24,-0.2 -3.34,-0.2" style="fill:#000000;fill-opacity:1;fill-rule:nonzero;stroke:none" id="path162"/>
      <path d="m 20172,8586 -1441.6,834.9 c -58.9,34.1 -137.6,15.8 -175.6,-40.8 L 16744.5,6684.6 c -38.1,-56.7 -21.1,-130.2 37.8,-164.4 l 1441.6,-834.8 c 58.9,-34.2 137.5,-15.9 175.6,40.8 l 1810.3,2695.4 c 38,56.7 21.1,130.3 -37.8,164.4" style="fill:#ffffff;fill-opacity:1;fill-rule:nonzero;stroke:none" id="path164"/>
      <path d="m 18665.4,9416 c -35.8,0 -71.4,-17.2 -92.2,-48.3 L 16762.9,6672.2 c -15,-22.2 -20,-48.3 -14.3,-73.4 5.8,-24.9 21.7,-46 44.8,-59.4 L 18235,5704.5 c 49,-28.3 114.4,-13.1 146.1,34 L 20191.4,8434 c 14.9,22.3 20,48.4 14.2,73.4 -5.8,25 -21.7,46.1 -44.7,59.4 l -1441.6,834.9 c -16.7,9.7 -35.3,14.3 -53.9,14.3 z m -377,-3769.8 c -26.1,0 -52.2,6.4 -75.6,20 l -1441.6,834.9 c -33.8,19.5 -57.1,50.7 -65.7,87.7 -8.6,37.2 -1.3,75.6 20.6,108.1 l 1810.3,2695.5 c 44.4,66.1 136.4,87.4 205.1,47.6 L 20183,8605.2 c 33.9,-19.6 57.2,-50.8 65.8,-87.8 8.6,-37.1 1.2,-75.5 -20.7,-108.1 L 18417.8,5713.8 c -29.2,-43.5 -79.1,-67.6 -129.4,-67.6" style="fill:#000000;fill-opacity:1;fill-rule:nonzero;stroke:none" id="path166"/>
      <path d="m 19033,9245.6 -38.6,-57.5 c -41,-61.2 -22.8,-140.6 40.8,-177.4 l 606,-350.9 c 63.6,-36.9 148.4,-17.2 189.5,44 l 38.6,57.5 -836.3,484.3" style="fill:#000000;fill-opacity:1;fill-rule:nonzero;stroke:none" id="path168"/>
      <path d="m 19373.1,8887.2 c -23.1,13.4 -29.8,42.2 -14.8,64.5 14.9,22.2 45.7,29.3 68.8,16 23.1,-13.4 29.8,-42.3 14.9,-64.5 -15,-22.2 -45.8,-29.4 -68.9,-16" style="fill:#ffffff;fill-opacity:1;fill-rule:nonzero;stroke:none" id="path170"/>
      <path d="m 19840.1,8176.1 -1360.2,787.7 79.6,118.5 1360.2,-787.7 -79.6,-118.5" style="fill:#000000;fill-opacity:1;fill-rule:nonzero;stroke:none" id="path172"/>
      <path d="m 17923.7,8095.8 1321.7,-765.4 504.9,751.7 -1321.7,765.5 z m 1328.6,-817.1 c -3.8,0 -7.6,0.9 -11.1,3 L 17881,8069.4 c -5.3,3 -9.1,8.2 -10.5,14.1 -1.3,6 -0.2,12.3 3.2,17.4 l 529.6,788.6 c 6.5,9.7 19.4,12.7 29.5,6.8 L 19793,8108.6 c 5.3,-3.1 9.1,-8.2 10.5,-14.2 1.4,-6 0.2,-12.2 -3.2,-17.3 l -529.6,-788.6 c -4.3,-6.4 -11.3,-9.8 -18.4,-9.8" style="fill:#000000;fill-opacity:1;fill-rule:nonzero;stroke:none" id="path174"/>
      <path d="m 19823.2,8268.1 c -10.6,-15.7 -32.4,-20.8 -48.8,-11.3 -16.4,9.5 -21.1,30 -10.6,45.7 10.6,15.8 32.5,20.8 48.9,11.4 16.4,-9.5 21.1,-30 10.5,-45.8" style="fill:#ffffff;fill-opacity:1;fill-rule:nonzero;stroke:none" id="path176"/>
      <path d="m 17557.1,7549.9 1321.7,-765.4 305.4,454.7 -1321.7,765.5 z m 1328.5,-817.1 c -3.7,0 -7.6,0.9 -11,3 l -1360.2,787.7 c -5.3,3 -9.1,8.2 -10.5,14.1 -1.4,6 -0.2,12.3 3.2,17.4 l 330.2,491.6 c 6.5,9.7 19.4,12.7 29.5,6.8 l 1360.1,-787.7 c 5.3,-3.1 9.1,-8.2 10.5,-14.2 1.4,-5.9 0.2,-12.2 -3.2,-17.3 L 18904,6742.6 c -4.2,-6.4 -11.2,-9.8 -18.4,-9.8" style="fill:#000000;fill-opacity:1;fill-rule:nonzero;stroke:none" id="path178"/>
      <path d="m 17178.7,6986.5 1321.7,-765.5 305.4,454.8 -1321.7,765.5 z m 1328.5,-817.2 c -3.8,0 -7.6,1 -11,3 L 17136,6960 c -5.3,3.1 -9.1,8.2 -10.5,14.2 -1.4,6 -0.2,12.3 3.2,17.4 l 330.2,491.6 c 6.5,9.7 19.3,12.6 29.4,6.8 l 1360.2,-787.7 c 5.3,-3.1 9.1,-8.2 10.5,-14.2 1.4,-6 0.2,-12.3 -3.2,-17.3 l -330.2,-491.7 c -4.2,-6.3 -11.2,-9.8 -18.4,-9.8" style="fill:#000000;fill-opacity:1;fill-rule:nonzero;stroke:none" id="path180"/>
      <path d="m 16912,6589.5 1321.8,-765.5 193.6,288.4 -1321.7,765.5 z m 1328.6,-817.2 c -3.8,0 -7.6,1 -11.1,3 L 16869.3,6563 c -5.3,3.1 -9.1,8.2 -10.5,14.2 -1.3,6 -0.2,12.2 3.2,17.3 l 218.4,325.2 c 6.5,9.7 19.4,12.7 29.5,6.9 l 1360.2,-787.8 c 5.3,-3 9.1,-8.2 10.5,-14.1 1.4,-6 0.2,-12.3 -3.2,-17.4 L 18259,5782.1 c -4.3,-6.3 -11.3,-9.8 -18.4,-9.8" style="fill:#000000;fill-opacity:1;fill-rule:nonzero;stroke:none" id="path182"/>
      <path d="m 17683.9,15685.9 c -2.7,0 -5.5,0.5 -8.2,1.6 -84.7,33.9 -177.1,89.4 -181,91.7 -10.5,6.3 -13.8,19.9 -7.5,30.4 6.3,10.5 19.9,13.9 30.4,7.6 0.9,-0.6 93.3,-56.1 174.5,-88.6 11.4,-4.5 16.9,-17.4 12.4,-28.8 -3.5,-8.6 -11.8,-13.9 -20.6,-13.9" style="fill:#000000;fill-opacity:1;fill-rule:nonzero;stroke:none" id="path184"/>
      <path d="m 18529.9,14396.8 336.8,-192.6 c 27.9,-15.9 63.5,-6.1 79.4,22 l 1040.5,1833.3 c 17.7,31.3 6.9,71.1 -24.2,88.9 l -853.5,488.1 -579,-2239.7" style="fill:#ffffff;fill-opacity:1;fill-rule:nonzero;stroke:none" id="path186"/>
      <path d="m 18529.9,14396.8 336.8,-192.6 c 16.4,-9.3 35.4,-9.8 51.5,-3 0,0 26.9,12.3 56.9,64.8 25.7,45.2 1003.9,1780.2 1003.9,1780.2 21.6,38 10.7,77.8 -20.3,95.6 l -853.6,488.1 -575.2,-2233.1" style="fill:#ffffff;fill-opacity:1;fill-rule:nonzero;stroke:none" id="path188"/>
      <path d="m 18895.2,14174.4 c -13.7,0 -27.2,3.6 -39.5,10.6 l -336.8,192.6 c -10.7,6.1 -14.3,19.6 -8.3,30.2 6.1,10.7 19.6,14.3 30.2,8.3 l 336.9,-192.7 c 9.8,-5.5 21.3,-6.2 31.8,-1.8 v 0 c -0.1,0 21.5,11.9 46.4,55.4 25.4,44.6 994,1762.8 1003.8,1780.1 14.8,26 9.8,52.9 -12.1,65.4 l -853.5,488.1 c -10.6,6.1 -14.3,19.6 -8.2,30.3 6.1,10.6 19.6,14.3 30.2,8.2 l 853.5,-488.1 c 43.1,-24.6 55.4,-78.7 28.7,-125.7 -9.8,-17.3 -978.5,-1735.5 -1004,-1780.2 -32.5,-57.1 -63.5,-72.5 -66.9,-74 -10.5,-4.5 -21.4,-6.7 -32.2,-6.7" style="fill:#000000;fill-opacity:1;fill-rule:nonzero;stroke:none" id="path190"/>
      <path d="m 19467.7,15472.6 -998.3,-1156.8 c -14,-16.2 -37.5,-20.3 -56.1,-9.7 l -1968.1,1125.5 c -24.5,14 -30.1,47.1 -11.6,68.6 l 1513.8,1754 c 14,16.3 37.5,20.4 56,9.7 l 1968.2,-1125.5 c 24.5,-14 30.1,-47.1 11.6,-68.5 l -414.7,-481.3 -100.8,-116" style="fill-opacity: 1; fill-rule: nonzero; stroke: none; fill: rgb(244, 244, 245);" id="path192"/>
      <path d="m 18435.4,14278.1 c -11.3,0 -22.7,2.9 -33,8.8 l -1968.2,1125.5 c -17.4,9.9 -29.3,27 -32.7,46.8 -3.5,19.9 2.1,40.1 15.3,55.4 l 1513.8,1754.1 c 20.9,24.2 56.1,30.3 83.8,14.5 l 1968.2,-1125.5 c 17.4,-10 29.3,-27.1 32.7,-46.9 3.4,-19.9 -2.1,-40.1 -15.3,-55.4 l -414.7,-481.2 c -8,-9.3 -22,-10.3 -31.3,-2.3 -9.2,7.9 -10.3,21.9 -2.3,31.2 l 414.7,481.2 c 4.5,5.2 6.4,12.2 5.3,19 -0.7,4 -3.1,11.3 -11.1,15.9 l -1968.2,1125.5 c -9.3,5.4 -21.2,3.3 -28.2,-4.9 l -1513.8,-1754.1 c -4.5,-5.2 -6.5,-12.1 -5.3,-18.9 0.7,-4 3,-11.4 11.1,-16 l 1968.1,-1125.5 c 9.3,-5.3 21.3,-3.2 28.3,5 l 998.4,1156.8 c 8,9.3 22,10.3 31.2,2.3 9.3,-8 10.3,-22 2.3,-31.2 l -998.3,-1156.8 c -13.1,-15.2 -31.8,-23.3 -50.8,-23.3" style="fill:#000000;fill-opacity:1;fill-rule:nonzero;stroke:none" id="path194"/>
      <path d="m 18100.8,14447 c -2.1,-0.4 -4.1,-0.8 -6.1,-1.2 l 6.1,1.2" style="fill:#000000;fill-opacity:1;fill-rule:nonzero;stroke:none" id="path196"/>
      <path d="m 17627.3,16628.1 375.1,-214.6 -270.8,-313.7 -375.1,214.5 270.8,313.8" style="fill:#ffffff;fill-opacity:1;fill-rule:nonzero;stroke:none" id="path198"/>
      <path d="m 17390.8,16320.2 335.9,-192.2 241.4,279.7 -336,192.1 z m 340.8,-242.6 c -3.8,0 -7.6,1 -11,2.9 l -375.1,214.6 c -5.8,3.2 -9.7,8.9 -10.9,15.4 -1.1,6.6 0.8,13.3 5.1,18.3 l 270.8,313.7 c 7,8.1 18.6,10 27.8,4.8 l 375.1,-214.5 c 5.8,-3.3 9.7,-9 10.9,-15.5 1.1,-6.5 -0.8,-13.2 -5.1,-18.2 l -270.9,-313.8 c -4.3,-5 -10.4,-7.7 -16.7,-7.7" style="fill:#000000;fill-opacity:1;fill-rule:nonzero;stroke:none" id="path200"/>
      <path d="m 17296.9,16246.5 375.1,-214.6 -270.9,-313.7 -375.1,214.5 270.9,313.8" style="fill:#ffffff;fill-opacity:1;fill-rule:nonzero;stroke:none" id="path202"/>
      <path d="m 17060.4,15938.6 335.9,-192.2 241.3,279.7 -335.9,192.1 z m 340.7,-242.6 c -3.7,0 -7.5,1 -11,2.9 l -375.1,214.5 c -5.7,3.3 -9.7,9 -10.8,15.5 -1.1,6.6 0.7,13.2 5.1,18.3 l 270.8,313.7 c 6.9,8 18.5,10 27.8,4.8 l 375.1,-214.5 c 5.7,-3.3 9.7,-9 10.8,-15.5 1.1,-6.6 -0.7,-13.2 -5,-18.2 l -270.9,-313.8 c -4.3,-5 -10.5,-7.7 -16.8,-7.7" style="fill:#000000;fill-opacity:1;fill-rule:nonzero;stroke:none" id="path204"/>
      <path d="m 18078.5,16370 375.1,-214.5 -270.8,-313.8 -375.1,214.6 270.8,313.7" style="fill:#ffffff;fill-opacity:1;fill-rule:nonzero;stroke:none" id="path206"/>
      <path d="m 17842,16062.1 336,-192.1 241.3,279.6 -335.9,192.1 z m 340.8,-242.5 c -3.8,0 -7.5,0.9 -11,2.9 l -375.1,214.5 c -5.8,3.3 -9.7,9 -10.9,15.5 -1.1,6.5 0.8,13.2 5.1,18.2 l 270.9,313.8 c 6.9,8 18.5,10 27.7,4.8 l 375.1,-214.6 c 5.8,-3.3 9.8,-8.9 10.9,-15.5 1.1,-6.5 -0.8,-13.2 -5.1,-18.2 l -270.8,-313.7 c -4.4,-5.1 -10.5,-7.7 -16.8,-7.7" style="fill:#000000;fill-opacity:1;fill-rule:nonzero;stroke:none" id="path208"/>
      <path d="m 17748.1,15988.4 375.1,-214.5 -270.8,-313.8 -375.2,214.5 270.9,313.8" style="fill:#ffffff;fill-opacity:1;fill-rule:nonzero;stroke:none" id="path210"/>
      <path d="m 17511.6,15680.5 335.9,-192.1 241.4,279.6 -336,192.1 z m 340.8,-242.5 c -3.8,0 -7.6,0.9 -11,2.9 l -375.2,214.5 c -5.7,3.3 -9.7,9 -10.8,15.5 -1.1,6.5 0.7,13.2 5.1,18.2 l 270.8,313.8 c 6.9,8 18.6,10 27.8,4.8 l 375.1,-214.6 c 5.7,-3.3 9.7,-8.9 10.8,-15.5 1.2,-6.5 -0.7,-13.2 -5,-18.2 l -270.9,-313.7 c -4.3,-5.1 -10.5,-7.7 -16.7,-7.7" style="fill:#000000;fill-opacity:1;fill-rule:nonzero;stroke:none" id="path212"/>
      <path d="m 18529.7,16112 375.2,-214.5 -270.9,-313.8 -375.1,214.5 270.8,313.8" style="fill:#ffffff;fill-opacity:1;fill-rule:nonzero;stroke:none" id="path214"/>
      <path d="m 18293.2,15804.1 336,-192.1 241.3,279.6 -335.9,192.1 z m 340.8,-242.6 c -3.7,0 -7.5,1 -11,2.9 l -375.1,214.6 c -5.8,3.3 -9.7,8.9 -10.8,15.5 -1.2,6.5 0.7,13.2 5,18.2 l 270.9,313.8 c 6.9,8 18.5,10 27.7,4.7 l 375.2,-214.5 c 5.7,-3.3 9.7,-9 10.8,-15.5 1.1,-6.5 -0.8,-13.2 -5.1,-18.2 l -270.8,-313.8 c -4.3,-5 -10.5,-7.7 -16.8,-7.7" style="fill:#000000;fill-opacity:1;fill-rule:nonzero;stroke:none" id="path216"/>
      <path d="m 18199.3,15730.4 375.1,-214.5 -270.8,-313.8 -375.2,214.5 270.9,313.8" style="fill:#ffffff;fill-opacity:1;fill-rule:nonzero;stroke:none" id="path218"/>
      <path d="m 17962.8,15422.5 335.9,-192.1 241.4,279.6 -336,192.1 z m 340.8,-242.6 c -3.8,0 -7.6,1 -11,3 l -375.1,214.5 c -5.8,3.3 -9.8,8.9 -10.9,15.5 -1.1,6.5 0.8,13.2 5.1,18.2 l 270.8,313.8 c 6.9,8 18.6,10 27.8,4.7 l 375.1,-214.5 c 5.8,-3.3 9.7,-9 10.9,-15.5 1.1,-6.5 -0.8,-13.2 -5.1,-18.2 l -270.9,-313.8 c -4.3,-5 -10.5,-7.7 -16.7,-7.7" style="fill:#000000;fill-opacity:1;fill-rule:nonzero;stroke:none" id="path220"/>
      <path d="m 18980.9,15853.9 375.2,-214.5 -270.9,-313.8 -375.1,214.6 270.8,313.7" style="fill:#ffffff;fill-opacity:1;fill-rule:nonzero;stroke:none" id="path222"/>
      <path d="m 18744.4,15546 336,-192.1 241.3,279.7 -335.9,192.1 z m 340.8,-242.5 c -3.7,0 -7.5,0.9 -11,2.9 l -375.1,214.5 c -5.7,3.3 -9.7,9 -10.8,15.5 -1.1,6.5 0.7,13.2 5,18.2 l 270.9,313.8 c 6.9,8 18.5,10 27.7,4.8 l 375.2,-214.5 c 5.7,-3.3 9.7,-9 10.8,-15.5 1.1,-6.6 -0.7,-13.2 -5.1,-18.2 l -270.8,-313.8 c -4.3,-5 -10.5,-7.7 -16.8,-7.7" style="fill:#000000;fill-opacity:1;fill-rule:nonzero;stroke:none" id="path224"/>
      <path d="m 18650.5,15472.4 375.1,-214.6 -270.8,-313.8 -375.1,214.6 270.8,313.8" style="fill:#ffffff;fill-opacity:1;fill-rule:nonzero;stroke:none" id="path226"/>
      <path d="m 18414,15164.4 335.9,-192.1 241.4,279.6 -336,192.2 z m 340.8,-242.5 c -3.8,0 -7.6,0.9 -11,2.9 l -375.1,214.5 c -5.8,3.3 -9.7,9 -10.9,15.5 -1.1,6.6 0.8,13.2 5.1,18.2 l 270.8,313.8 c 7,8 18.6,10 27.8,4.8 l 375.1,-214.5 c 5.8,-3.3 9.7,-9 10.9,-15.5 1.1,-6.6 -0.8,-13.2 -5.1,-18.2 l -270.8,-313.8 c -4.4,-5 -10.5,-7.7 -16.8,-7.7" style="fill:#000000;fill-opacity:1;fill-rule:nonzero;stroke:none" id="path228"/>
      <path d="m 18165,16937.4 c -3.7,0 -7.5,0.9 -11,2.9 -102.6,58.7 -138.4,190.4 -79.8,293.6 28.5,50.2 74.7,86.2 130.2,101.4 55.1,15.1 112.8,7.8 162.3,-20.5 3.9,-2.2 7.6,-4.5 11.2,-6.9 10.2,-6.7 13.1,-20.4 6.4,-30.6 -6.7,-10.3 -20.4,-13.1 -30.7,-6.4 -2.9,1.9 -5.8,3.7 -8.9,5.4 -39.3,22.5 -84.9,28.3 -128.6,16.3 -44,-12.1 -80.7,-40.7 -103.4,-80.5 -46.5,-82.1 -18.1,-186.7 63.3,-233.3 10.7,-6.1 14.3,-19.6 8.3,-30.2 -4.1,-7.2 -11.6,-11.2 -19.3,-11.2" style="fill:#000000;fill-opacity:1;fill-rule:nonzero;stroke:none" id="path230"/>
      <path d="m 18417.7,16792.9 c -3.7,0 -7.5,0.9 -11,2.9 -102.6,58.7 -138.4,190.4 -79.8,293.6 28.5,50.2 74.7,86.2 130.1,101.4 55.2,15.1 112.8,7.9 162.4,-20.5 3.8,-2.2 7.5,-4.5 11.2,-6.9 10.2,-6.6 13.1,-20.4 6.4,-30.6 -6.7,-10.2 -20.5,-13.1 -30.7,-6.4 -2.9,1.9 -5.9,3.7 -8.9,5.4 -39.3,22.5 -85,28.3 -128.6,16.3 -44.1,-12 -80.8,-40.7 -103.4,-80.5 -46.6,-82.1 -18.2,-186.7 63.3,-233.3 10.6,-6.1 14.3,-19.6 8.2,-30.2 -4.1,-7.2 -11.5,-11.2 -19.2,-11.2" style="fill:#000000;fill-opacity:1;fill-rule:nonzero;stroke:none" id="path232"/>
      <path d="m 18670.3,16648.4 c -3.7,0 -7.5,1 -10.9,2.9 -102.6,58.7 -138.4,190.4 -79.8,293.6 28.4,50.2 74.6,86.2 130.1,101.4 55.1,15.1 112.8,7.9 162.4,-20.5 3.8,-2.2 7.5,-4.5 11.1,-6.8 10.3,-6.7 13.1,-20.5 6.4,-30.7 -6.7,-10.2 -20.4,-13.1 -30.6,-6.4 -2.9,1.9 -5.9,3.7 -9,5.5 -39.2,22.4 -84.9,28.2 -128.6,16.2 -44,-12 -80.7,-40.7 -103.3,-80.5 -46.6,-82.1 -18.2,-186.7 63.3,-233.3 10.6,-6.1 14.3,-19.6 8.2,-30.2 -4.1,-7.2 -11.6,-11.2 -19.3,-11.2" style="fill:#000000;fill-opacity:1;fill-rule:nonzero;stroke:none" id="path234"/>
      <path d="m 18923,16503.9 c -3.7,0 -7.5,1 -11,3 -102.6,58.6 -138.4,190.3 -79.8,293.6 28.5,50.1 74.7,86.2 130.2,101.4 55.1,15 112.8,7.8 162.3,-20.6 3.8,-2.2 7.6,-4.5 11.2,-6.9 10.2,-6.7 13.1,-20.4 6.4,-30.6 -6.7,-10.2 -20.4,-13.1 -30.7,-6.4 -2.9,1.9 -5.8,3.7 -8.9,5.5 -39.3,22.4 -85,28.2 -128.6,16.2 -44,-12 -80.8,-40.6 -103.4,-80.5 -46.5,-82.1 -18.2,-186.7 63.3,-233.3 10.6,-6.1 14.3,-19.6 8.3,-30.2 -4.1,-7.2 -11.6,-11.2 -19.3,-11.2" style="fill:#000000;fill-opacity:1;fill-rule:nonzero;stroke:none" id="path236"/>
      <path d="m 19175.7,16359.4 c -3.8,0 -7.5,1 -11,3 -102.6,58.6 -138.4,190.4 -79.8,293.6 28.4,50.1 74.7,86.2 130.1,101.4 55.1,15.1 112.8,7.8 162.4,-20.6 3.8,-2.1 7.5,-4.4 11.1,-6.8 10.3,-6.7 13.1,-20.4 6.5,-30.7 -6.7,-10.2 -20.5,-13.1 -30.7,-6.4 -2.9,1.9 -5.9,3.7 -8.9,5.5 -39.3,22.4 -85,28.2 -128.7,16.2 -44,-12 -80.7,-40.6 -103.3,-80.5 -46.6,-82 -18.2,-186.7 63.3,-233.3 10.6,-6.1 14.3,-19.6 8.2,-30.2 -4.1,-7.2 -11.6,-11.2 -19.2,-11.2" style="fill:#000000;fill-opacity:1;fill-rule:nonzero;stroke:none" id="path238"/>
      <path d="m 19428.3,16214.9 c -3.7,0 -7.5,1 -11,3 -102.6,58.6 -138.4,190.4 -79.8,293.6 28.5,50.2 74.7,86.2 130.2,101.4 55.1,15.1 112.8,7.8 162.3,-20.6 3.9,-2.2 7.6,-4.4 11.2,-6.8 10.2,-6.7 13.1,-20.4 6.4,-30.7 -6.7,-10.2 -20.4,-13.1 -30.6,-6.4 -2.9,1.9 -5.9,3.7 -9,5.5 -39.3,22.5 -84.9,28.2 -128.6,16.3 -44,-12.1 -80.7,-40.7 -103.4,-80.6 -46.5,-82 -18.1,-186.7 63.3,-233.3 10.7,-6 14.3,-19.6 8.3,-30.2 -4.1,-7.2 -11.6,-11.2 -19.3,-11.2" style="fill:#000000;fill-opacity:1;fill-rule:nonzero;stroke:none" id="path240"/>
      <path d="m 19666.6,16078.7 c -3.7,0 -7.5,0.9 -11,2.9 -102.6,58.7 -138.4,190.4 -79.8,293.6 28.5,50.2 74.7,86.2 130.2,101.4 55.1,15.1 112.8,7.8 162.3,-20.5 65,-37.2 105.3,-104.2 108,-179.4 0.4,-12.3 -9.2,-22.5 -21.4,-22.9 -12.8,-0.6 -22.5,9.1 -22.9,21.3 -2.1,59.8 -34.1,113 -85.7,142.5 -39.3,22.5 -85,28.2 -128.6,16.3 -44,-12.1 -80.7,-40.7 -103.4,-80.6 -46.5,-82 -18.1,-186.7 63.3,-233.2 10.7,-6.1 14.3,-19.7 8.3,-30.3 -4.1,-7.1 -11.6,-11.1 -19.3,-11.1" style="fill:#000000;fill-opacity:1;fill-rule:nonzero;stroke:none" id="path242"/>
      <path d="m 9735.37,5085.6 c 0,0 -765.86,1678.7 -326.54,3854.9 0,0 1186.97,-994.6 759.07,-3854.9 h -432.53" style="fill:#ffffff;fill-opacity:1;fill-rule:nonzero;stroke:none" id="path244"/>
      <path d="m 9749.85,5107.8 h 398.95 c 215.3,1459.7 0,2418.3 -219.14,2966.2 -195.08,487.6 -427.47,744.6 -506.88,823.1 -396.56,-2026.4 258.49,-3629.7 327.07,-3789.3 z m 418.05,-44.3 h -432.53 c -8.67,0 -16.54,5 -20.15,12.9 -7.69,16.9 -763.8,1710.2 -328.11,3868.5 1.55,7.6 7.02,13.9 14.4,16.5 7.37,2.6 15.55,1.1 21.54,-3.9 12.3,-10.3 303.8,-259.2 546.32,-863.6 222.93,-555.6 442.23,-1529.1 220.43,-3011.6 -1.6,-10.8 -11,-18.8 -21.9,-18.8" style="fill:#000000;fill-opacity:1;fill-rule:nonzero;stroke:none" id="path246"/>
      <path d="m 9922.68,5238.5 c -0.41,0 -0.82,0 -1.23,0 -12.21,0.7 -21.58,11.1 -20.9,23.3 58.63,1073.3 -425.3,3364.2 -430.19,3387.2 -2.54,12 5.09,23.7 17.06,26.3 11.86,2.5 23.71,-5.1 26.26,-17.1 4.91,-23.1 490.02,-2319.6 431.09,-3398.8 -0.64,-11.8 -10.41,-20.9 -22.09,-20.9" style="fill:#000000;fill-opacity:1;fill-rule:nonzero;stroke:none" id="path248"/>
      <path d="m 10622.6,7806.9 c 0,0 -986.79,-1782.8 -393.2,-2554.2 h 317.5 c 0,0 634.5,1393.5 75.7,2554.2" style="fill:#ffffff;fill-opacity:1;fill-rule:nonzero;stroke:none" id="path250"/>
      <path d="m 10240.4,5274.8 h 292 c 60.7,141.9 576.7,1412 88.9,2482.6 -137.6,-262.9 -897.9,-1789.6 -380.9,-2482.6 z m 306.5,-44.3 h -317.5 c -6.9,0 -13.4,3.2 -17.6,8.7 -250.82,326 -260.77,859.8 -29.5,1586.6 171.2,537.9 418.4,987.3 420.9,991.8 4,7.2 11.6,11.7 20,11.4 8.3,-0.2 15.7,-5.1 19.3,-12.5 556.9,-1156.6 -69.1,-2559 -75.5,-2573 -3.6,-7.9 -11.4,-13 -20.1,-13" style="fill:#000000;fill-opacity:1;fill-rule:nonzero;stroke:none" id="path252"/>
      <path d="m 10377.6,5183.3 c -11.8,0 -21.6,9.3 -22.1,21.3 -28.6,735.9 218.9,2337.2 221.4,2353.3 1.9,12 13.2,20.3 25.3,18.4 12.1,-1.8 20.4,-13.2 18.5,-25.3 -2.5,-16 -249.3,-1613 -220.9,-2344.7 0.4,-12.2 -9.1,-22.5 -21.3,-23 -0.3,0 -0.6,0 -0.9,0" style="fill:#000000;fill-opacity:1;fill-rule:nonzero;stroke:none" id="path254"/>
      <path d="m 8621.96,7150.2 c 0,0 840.57,-286.7 1144.93,-1984.6 h -330.62 c 0,0 -689.96,932.5 -814.31,1984.6" style="fill:#ffffff;fill-opacity:1;fill-rule:nonzero;stroke:none" id="path256"/>
      <path d="m 9447.6,5187.7 h 292.76 c -266.62,1448 -933.45,1850.4 -1091.6,1926.8 127.03,-964.4 729.34,-1829.6 798.84,-1926.8 z m 319.29,-44.3 h -330.62 c -7.01,0 -13.62,3.4 -17.79,9 -6.95,9.4 -694.9,949.3 -818.51,1995.2 -0.89,7.6 2.15,15.1 8.08,19.9 5.9,4.8 13.86,6.2 21.06,3.7 8.81,-3 218.63,-76.9 467.86,-362 228.29,-261.2 533.6,-757.6 691.73,-1639.7 1.15,-6.5 -0.61,-13.1 -4.82,-18.1 -4.2,-5.1 -10.43,-8 -16.99,-8" style="fill:#000000;fill-opacity:1;fill-rule:nonzero;stroke:none" id="path258"/>
      <path d="m 9586.18,5191.3 c -10.65,0 -20.04,7.6 -21.83,18.5 -125.14,756.2 -666.55,1517.6 -672,1525.2 -7.13,10 -4.86,23.8 5.08,30.9 9.96,7.2 23.78,4.9 30.9,-5.1 5.52,-7.6 552.92,-777.5 679.73,-1543.8 1.99,-12 -6.18,-23.4 -18.25,-25.4 -1.22,-0.2 -2.43,-0.3 -3.63,-0.3" style="fill:#000000;fill-opacity:1;fill-rule:nonzero;stroke:none" id="path260"/>
      <path d="M 8946.25,5300.3 H 11020 l 46.5,-980.9 c 11.4,-240.5 -180.5,-441.7 -421.2,-441.7 H 9460.87 c -284.87,0 -515.74,231.1 -515.47,516 l 0.85,906.6" style="fill:#000000;fill-opacity:1;fill-rule:nonzero;stroke:none" id="path262"/>
      <path d="m 13624.4,14663.7 h -543.3 v 6113 h 543.3 v -6113" style="fill-opacity: 1; fill-rule: nonzero; stroke: none; fill: rgb(244, 244, 245);" id="path264"/>
      <path d="m 13081.1,14641.6 c -12.2,0 -22.1,9.9 -22.1,22.1 v 6113 c 0,12.2 9.9,22.2 22.1,22.2 12.2,0 22.2,-10 22.2,-22.2 v -6113 c 0,-12.2 -10,-22.1 -22.2,-22.1" style="fill:#000000;fill-opacity:1;fill-rule:nonzero;stroke:none" id="path266"/>
      <path d="m 13624.4,14641.6 c -12.2,0 -22.1,9.9 -22.1,22.1 v 6113 c 0,12.2 9.9,22.2 22.1,22.2 12.2,0 22.2,-10 22.2,-22.2 v -6113 c 0,-12.2 -10,-22.1 -22.2,-22.1" style="fill:#000000;fill-opacity:1;fill-rule:nonzero;stroke:none" id="path268"/>
      <path d="m 15311.1,19068.4 2168.8,-630.8 1539.3,1712 z" style="fill-opacity: 1; fill-rule: nonzero; stroke: none; fill: rgb(244, 244, 245);" id="path270"/>
      <path d="m 15390.3,19068.4 2082.4,-605.6 1478,1643.7 z m 2089.6,-652.9 c -2.1,0 -4.1,0.3 -6.2,0.9 l -2168.8,630.7 c -9.5,2.8 -16,11.4 -16,21.3 0,9.8 6.5,18.5 16,21.3 l 3708,1081.1 c 9.5,2.8 19.7,-1.1 25,-9.4 5.3,-8.4 4.3,-19.3 -2.3,-26.6 l -1539.2,-1712 c -4.3,-4.7 -10.3,-7.3 -16.5,-7.3" style="fill:#000000;fill-opacity:1;fill-rule:nonzero;stroke:none" id="path272"/>
      <path d="m 16391.7,18050.6 -302.7,791.6 2396.7,1010.4 -2015.5,-1121.3 453.4,-131.9 -531.9,-548.8" style="fill:#ffffff;fill-opacity:1;fill-rule:nonzero;stroke:none" id="path274"/>
      <path d="m 16117.4,18830.1 282.5,-739.1 482.2,497.4 -418.1,121.6 c -8.5,2.5 -14.8,9.9 -15.8,18.8 -1,8.9 3.5,17.5 11.3,21.8 l 1659.8,923.5 z m 274.3,-801.6 c -1.5,0 -3,0.1 -4.5,0.4 -7.4,1.5 -13.5,6.7 -16.2,13.8 l -302.7,791.5 c -4.2,11.2 1.1,23.7 12.1,28.4 l 2396.7,1010.4 c 10.9,4.6 23.4,-0.1 28.5,-10.7 5.2,-10.6 1.2,-23.3 -9.1,-29 l -1969.1,-1095.6 402.4,-117 c 7.4,-2.2 13.2,-8.1 15.2,-15.6 2,-7.5 -0.1,-15.5 -5.5,-21.1 l -531.9,-548.8 c -4.2,-4.3 -10,-6.7 -15.9,-6.7" style="fill:#000000;fill-opacity:1;fill-rule:nonzero;stroke:none" id="path276"/>
      <path d="m 16419.3,18267.5 c -0.9,0 -1.7,0 -2.6,0.1 -12.1,1.4 -20.8,12.4 -19.4,24.6 l 50.9,441.6 c 1.4,12.2 12.4,20.9 24.6,19.5 12.1,-1.4 20.8,-12.4 19.4,-24.6 l -50.9,-441.6 c -1.3,-11.3 -10.9,-19.6 -22,-19.6" style="fill:#000000;fill-opacity:1;fill-rule:nonzero;stroke:none" id="path278"/>
      <path d="m 11952.9,3780.2 c -148.5,0 -298.7,4.1 -446.4,12.2 -12.2,0.7 -21.6,11.1 -20.9,23.3 0.6,12.2 11.2,21.5 23.3,20.9 146.9,-8 296.3,-12.1 444,-12.1 763.7,0 1519.1,107.2 2245.4,318.6 11.8,3.4 24.1,-3.3 27.5,-15.1 3.4,-11.7 -3.4,-24 -15.1,-27.4 -730.3,-212.6 -1489.9,-320.4 -2257.8,-320.4" style="fill:#000000;fill-opacity:1;fill-rule:nonzero;stroke:none" id="path280"/>
      <path d="m 16560.8,5230.4 c -7,0 -13.8,3.3 -18.1,9.4 -7,10.1 -4.6,23.9 5.4,30.9 217.6,152.4 430.2,317.5 631.7,490.9 9.2,7.9 23.2,6.9 31.2,-2.4 8,-9.2 6.9,-23.2 -2.3,-31.2 -202.7,-174.3 -416.4,-340.4 -635.2,-493.6 -3.9,-2.7 -8.3,-4 -12.7,-4" style="fill:#000000;fill-opacity:1;fill-rule:nonzero;stroke:none" id="path282"/>
      <path d="m 9388.52,19447.2 c -9.26,0 -17.89,5.9 -20.99,15.1 -3.9,11.6 2.34,24.2 13.93,28.1 826.34,277.8 1691.44,418.6 2571.44,418.6 144.7,0 291.1,-3.9 435.1,-11.5 12.2,-0.7 21.6,-11.1 21,-23.3 -0.7,-12.2 -11.1,-21.6 -23.3,-20.9 -143.3,7.6 -288.9,11.4 -432.8,11.4 -875.2,0 -1735.6,-140 -2557.32,-416.3 -2.34,-0.8 -4.73,-1.2 -7.06,-1.2" style="fill:#000000;fill-opacity:1;fill-rule:nonzero;stroke:none" id="path284"/>
      <path d="m 8722.21,19189.5 c -8.52,0 -16.64,4.9 -20.29,13.3 -4.92,11.2 0.17,24.2 11.38,29.1 93.21,41 188.47,80.7 283.09,118 11.41,4.5 24.24,-1.2 28.72,-12.5 4.49,-11.4 -1.1,-24.3 -12.48,-28.8 -94.1,-37 -188.82,-76.5 -281.53,-117.2 -2.89,-1.3 -5.92,-1.9 -8.89,-1.9" style="fill:#000000;fill-opacity:1;fill-rule:nonzero;stroke:none" id="path286"/>
      <path d="m 4165.85,13840.2 c -1.82,0 -3.68,0.2 -5.54,0.7 -11.84,3.1 -18.97,15.2 -15.91,27 160.97,623 397.53,1226.7 703.14,1794.3 5.81,10.8 19.22,14.8 30,9 10.77,-5.8 14.79,-19.2 9,-30 -303.92,-564.5 -539.18,-1164.8 -699.26,-1784.4 -2.58,-10 -11.56,-16.6 -21.43,-16.6" style="fill:#000000;fill-opacity:1;fill-rule:nonzero;stroke:none" id="path288"/>
      <path d="m 4755.76,8229.8 c -8.13,0 -15.95,4.5 -19.83,12.3 -562.32,1124.3 -847.45,2336.3 -847.45,3602.5 0,577.8 61.42,1154.5 182.55,1714.1 2.59,12 14.43,19.5 26.33,17 11.96,-2.6 19.55,-14.4 16.97,-26.4 -120.47,-556.5 -181.55,-1130 -181.55,-1704.7 0,-1259.2 283.54,-2464.6 842.77,-3582.7 5.48,-11 1.04,-24.3 -9.9,-29.7 -3.18,-1.6 -6.57,-2.4 -9.89,-2.4" style="fill:#000000;fill-opacity:1;fill-rule:nonzero;stroke:none" id="path290"/>
      <path d="m 5539.55,15334.8 c -3.89,0 -7.82,1.1 -11.4,3.2 -10.48,6.3 -13.86,19.9 -7.56,30.4 275.66,458.2 603.1,887.1 973.22,1274.8 8.44,8.8 22.47,9.1 31.31,0.7 8.84,-8.5 9.17,-22.5 0.72,-31.3 -367.87,-385.3 -693.32,-811.6 -967.3,-1267 -4.15,-6.9 -11.48,-10.8 -18.99,-10.8" style="fill:#000000;fill-opacity:1;fill-rule:nonzero;stroke:none" id="path292"/>
      <path d="m 5149.43,8631.5 c -8.42,0 -16.48,4.8 -20.19,13 -426.31,941.6 -642.47,1947.3 -642.47,2989.2 0,1170.3 270.1,2287.5 802.78,3320.5 5.6,10.9 18.93,15.2 29.83,9.6 10.87,-5.6 15.14,-19 9.53,-29.9 -529.4,-1026.7 -797.84,-2137 -797.84,-3300.2 0,-1035.6 214.83,-2035.1 638.52,-2971 5.04,-11.1 0.1,-24.2 -11.04,-29.3 -2.96,-1.3 -6.06,-1.9 -9.12,-1.9" style="fill:#000000;fill-opacity:1;fill-rule:nonzero;stroke:none" id="path294"/>
      <path d="m 16116.8,5169.8 c -5.5,0 -11,2 -15.3,6.2 -8.9,8.4 -9.2,22.4 -0.7,31.3 l 81.5,85 c 8.5,8.9 22.5,9.2 31.3,0.7 8.8,-8.4 9.1,-22.5 0.7,-31.3 l -81.5,-85.1 c -4.4,-4.5 -10.2,-6.8 -16,-6.8" style="fill:#000000;fill-opacity:1;fill-rule:nonzero;stroke:none" id="path296"/>
      <path d="m 15831.6,4872.1 c -5.5,0 -11.1,2 -15.4,6.1 -8.8,8.5 -9.1,22.5 -0.6,31.3 l 81.5,85.1 c 8.4,8.8 22.5,9.1 31.3,0.7 8.8,-8.5 9.1,-22.5 0.7,-31.4 l -81.5,-85 c -4.4,-4.6 -10.2,-6.8 -16,-6.8" style="fill:#000000;fill-opacity:1;fill-rule:nonzero;stroke:none" id="path298"/>
      <path d="m 15911.5,5165.2 c -5.6,0 -11.2,2.2 -15.5,6.4 l -82.7,81.4 c -8.8,8.6 -8.9,22.6 -0.3,31.3 8.6,8.8 22.6,8.9 31.3,0.3 l 82.8,-81.4 c 8.7,-8.6 8.8,-22.6 0.2,-31.4 -4.3,-4.4 -10.1,-6.6 -15.8,-6.6" style="fill:#000000;fill-opacity:1;fill-rule:nonzero;stroke:none" id="path300"/>
      <path d="m 16201.1,4880.3 c -5.7,0 -11.3,2.1 -15.6,6.3 l -82.7,81.4 c -8.7,8.6 -8.8,22.6 -0.3,31.4 8.6,8.7 22.7,8.8 31.4,0.2 l 82.7,-81.4 c 8.7,-8.6 8.8,-22.6 0.2,-31.3 -4.3,-4.4 -10,-6.6 -15.7,-6.6" style="fill:#000000;fill-opacity:1;fill-rule:nonzero;stroke:none" id="path302"/>
      <path d="m 19551.8,13359.5 c -5.5,0 -11,2.1 -15.3,6.2 -8.9,8.4 -9.2,22.5 -0.7,31.3 l 81.5,85.1 c 8.5,8.8 22.5,9.1 31.3,0.6 8.9,-8.4 9.1,-22.4 0.7,-31.3 l -81.5,-85 c -4.4,-4.6 -10.2,-6.9 -16,-6.9" style="fill:#000000;fill-opacity:1;fill-rule:nonzero;stroke:none" id="path304"/>
      <path d="m 19266.6,13061.8 c -5.5,0 -11.1,2 -15.4,6.1 -8.8,8.5 -9.1,22.5 -0.6,31.3 l 81.5,85.1 c 8.4,8.9 22.5,9.1 31.3,0.7 8.8,-8.5 9.1,-22.5 0.7,-31.3 l -81.5,-85.1 c -4.4,-4.5 -10.2,-6.8 -16,-6.8" style="fill:#000000;fill-opacity:1;fill-rule:nonzero;stroke:none" id="path306"/>
      <path d="m 19346.5,13355 c -5.6,0 -11.2,2.1 -15.5,6.3 l -82.7,81.5 c -8.8,8.5 -8.9,22.6 -0.3,31.3 8.6,8.7 22.6,8.8 31.3,0.2 l 82.8,-81.4 c 8.7,-8.6 8.8,-22.6 0.2,-31.3 -4.3,-4.4 -10.1,-6.6 -15.8,-6.6" style="fill:#000000;fill-opacity:1;fill-rule:nonzero;stroke:none" id="path308"/>
      <path d="m 19636.1,13070 c -5.7,0 -11.3,2.1 -15.6,6.4 l -82.7,81.4 c -8.7,8.6 -8.8,22.6 -0.3,31.3 8.6,8.7 22.7,8.8 31.4,0.2 l 82.7,-81.4 c 8.7,-8.6 8.8,-22.6 0.3,-31.3 -4.4,-4.4 -10.1,-6.6 -15.8,-6.6" style="fill:#000000;fill-opacity:1;fill-rule:nonzero;stroke:none" id="path310"/>
      <path d="m 16206.2,17349.9 c -3.4,0 -7,0.8 -10.3,2.5 -10.8,5.7 -14.9,19.1 -9.2,30 38.6,73.3 66.8,155.2 83.8,243.6 2.3,12 13.9,19.9 25.9,17.6 12,-2.3 19.9,-13.9 17.6,-25.9 -17.8,-92.7 -47.4,-178.8 -88.2,-256 -3.9,-7.5 -11.6,-11.8 -19.6,-11.8 z m -375.9,-363.1 c -7.9,0 -15.6,4.3 -19.6,11.8 -5.7,10.8 -1.6,24.2 9.2,29.9 80.6,42.8 151.6,93 211.2,149.4 8.9,8.4 22.9,8.1 31.3,-0.8 8.4,-8.9 8,-22.9 -0.8,-31.3 -62.5,-59.2 -136.8,-111.8 -220.9,-156.4 -3.3,-1.8 -6.9,-2.6 -10.4,-2.6 z m -504.2,-161.5 c -10.6,0 -19.9,7.5 -21.8,18.3 -2.1,12 5.9,23.5 18,25.6 91.7,16.2 177.8,36.5 255.8,60.6 11.7,3.6 24.1,-2.9 27.7,-14.6 3.6,-11.7 -2.9,-24.1 -14.6,-27.7 -79.8,-24.6 -167.7,-45.5 -261.3,-61.9 -1.2,-0.2 -2.5,-0.3 -3.8,-0.3 z m -1326.4,-37.7 c -0.2,0 -0.4,0 -0.6,0 -69,1.8 -123.3,2.6 -171,2.6 l -4.2,22.2 v -22.2 l -89.9,-0.1 h -0.1 c -12.2,0 -22.1,9.9 -22.1,22.1 0,12.2 9.9,22.1 22.1,22.2 l 90,0.1 h 4.2 c 48.1,0 102.8,-0.8 172.2,-2.7 12.2,-0.3 21.8,-10.5 21.5,-22.7 -0.3,-12 -10.1,-21.5 -22.1,-21.5 z m -797.4,-5.6 c -11.9,0 -21.7,9.4 -22.1,21.4 -0.5,12.2 9.1,22.5 21.3,22.9 82.2,2.9 169.3,5 266.3,6.3 0.1,0 0.2,0 0.3,0 12.1,0 22,-9.7 22.1,-21.9 0.2,-12.2 -9.6,-22.3 -21.8,-22.4 -96.6,-1.3 -183.4,-3.4 -265.3,-6.3 -0.3,0 -0.6,0 -0.8,0 z m 1594.6,-5.9 c -11.9,0 -21.8,9.5 -22.1,21.5 -0.4,12.2 9.2,22.4 21.5,22.8 94.7,2.8 181.1,7.7 264.2,15 12.4,1.1 23,-7.9 24,-20.1 1.1,-12.1 -7.9,-22.9 -20.1,-24 -83.9,-7.4 -171.2,-12.4 -266.8,-15.2 -0.2,0 -0.5,0 -0.7,0 z m -265.8,-2.3 c -0.1,0 -0.1,0 -0.2,0 -99.6,1 -194.6,3.5 -266.2,5.6 -12.2,0.4 -21.8,10.6 -21.5,22.9 0.4,12.2 10.3,21.5 22.8,21.4 71.4,-2.1 166.1,-4.6 265.3,-5.6 12.2,-0.1 22.1,-10.1 21.9,-22.3 -0.1,-12.2 -10,-22 -22.1,-22 z m -1859.1,-29.9 c -11.1,0 -20.7,8.4 -22,19.6 -1.4,12.2 7.3,23.2 19.4,24.6 84,9.7 173.4,17.9 265.8,24.4 12.1,0.9 22.7,-8.4 23.6,-20.6 0.8,-12.2 -8.4,-22.7 -20.6,-23.6 -91.7,-6.4 -180.4,-14.5 -263.7,-24.2 -0.8,-0.1 -1.7,-0.2 -2.5,-0.2 z m -522.7,-93.6 c -9.8,0 -18.9,6.7 -21.4,16.7 -3,11.8 4.1,23.9 16,26.9 83,21.1 170.9,39.9 261.3,55.9 12,2.1 23.5,-5.9 25.7,-18 2.1,-12 -5.9,-23.5 -18,-25.6 -89.3,-15.8 -176.2,-34.4 -258.1,-55.2 -1.8,-0.5 -3.6,-0.7 -5.5,-0.7 z m -499.4,-178 c -8.3,0 -16.2,4.6 -20,12.5 -5.3,11.1 -0.6,24.3 10.4,29.6 78.2,37.5 161.5,71.9 247.5,102.3 11.5,4.1 24.2,-2 28.3,-13.5 4,-11.6 -2,-24.2 -13.6,-28.3 -84.5,-29.8 -166.3,-63.6 -243.1,-100.5 -3,-1.4 -6.3,-2.1 -9.5,-2.1 z m -445.8,-286.6 c -6.2,0 -12.5,2.6 -16.9,7.8 -7.9,9.3 -6.7,23.3 2.6,31.2 67.6,57.2 140.3,110.8 216.1,159.4 10.3,6.6 24,3.6 30.6,-6.7 6.6,-10.3 3.6,-24 -6.7,-30.6 -74.2,-47.5 -145.3,-99.9 -211.4,-155.9 -4.1,-3.5 -9.2,-5.2 -14.3,-5.2 z m -352.9,-394.9 c -4.2,0 -8.5,1.2 -12.3,3.7 -10.2,6.8 -12.9,20.5 -6.1,30.7 40.8,61.2 81.6,115.9 121.1,162.8 14.2,17 28.7,33.6 43.4,49.9 8.2,9 22.2,9.8 31.3,1.6 9,-8.2 9.8,-22.2 1.6,-31.3 -14.4,-15.9 -28.5,-32.2 -42.5,-48.7 -38.4,-45.6 -78.1,-99.1 -118.1,-158.9 -4.2,-6.4 -11.3,-9.8 -18.4,-9.8 z m -247.6,-469.7 c -2.8,0 -5.6,0.5 -8.3,1.6 -11.3,4.6 -16.8,17.5 -12.3,28.8 32.5,80.9 70.5,162.7 112.9,243.2 5.7,10.8 19.1,14.9 30,9.2 10.8,-5.7 14.9,-19.1 9.2,-29.9 -41.7,-79.1 -79.1,-159.5 -111,-239 -3.5,-8.6 -11.8,-13.9 -20.5,-13.9 z m -127.6,-514 c -0.4,0 -0.9,0.1 -1.4,0.1 -12.2,0.8 -21.5,11.3 -20.7,23.5 5.3,83.1 20.2,172.5 44.4,266 3.1,11.8 15.1,18.9 27,15.8 11.8,-3 19,-15.1 15.9,-26.9 -23.5,-90.8 -38,-177.5 -43.1,-257.7 -0.7,-11.7 -10.5,-20.8 -22.1,-20.8 z m 142.2,-497.4 c -6.1,0 -12.2,2.5 -16.5,7.5 -59.7,67.2 -102.1,148.9 -126.1,242.8 -3,11.8 4.1,23.9 16,26.9 11.8,3 23.9,-4.1 26.9,-16 22.2,-86.9 61.4,-162.4 116.3,-224.3 8.1,-9.2 7.3,-23.2 -1.9,-31.3 -4.2,-3.8 -9.4,-5.6 -14.7,-5.6" style="fill:#000000;fill-opacity:1;fill-rule:nonzero;stroke:none" id="path312"/>
    </g>
  </g>
</svg>